# Blender 4.0.2
# www.blender.org
mtllib grass.mtl
o Plane.013
v -1.661327 -0.062653 2.605232
v -1.904732 -0.062653 2.695974
v -1.720120 0.081311 3.048644
v -2.229774 -0.673957 2.234930
v -1.986368 -0.673957 2.144188
v -2.387467 -0.088894 2.381483
v -2.548917 -0.080388 2.178157
v -2.863177 0.266012 2.558204
v -2.288420 -0.524194 1.945895
v -2.126969 -0.532699 2.149221
v -2.103243 -0.615042 2.052161
v -2.296273 -0.615042 2.226000
v -1.121332 -0.481001 2.524703
v -1.586879 -0.352684 2.414958
v -1.454044 -0.352684 2.191720
v -2.060337 -0.615042 2.157241
v -2.315188 -0.615042 2.106930
v -1.726788 -0.428291 3.372584
v -2.041227 -0.275049 2.788024
v -1.782915 -0.275049 2.760543
v -2.697337 -0.062653 2.605232
v -2.453932 -0.062653 2.695974
v -2.638543 0.081311 3.048644
v -2.128890 -0.673957 2.234930
v -2.372295 -0.673957 2.144188
v -1.971197 -0.088894 2.381483
v -1.809746 -0.080388 2.178157
v -1.495487 0.266012 2.558204
v -2.070244 -0.524194 1.945895
v -2.231695 -0.532699 2.149221
v -2.255421 -0.615042 2.052161
v -2.062391 -0.615042 2.226000
v -3.237331 -0.481001 2.524703
v -2.771784 -0.352684 2.414958
v -2.904619 -0.352684 2.191720
v -2.298327 -0.615042 2.157241
v -2.043476 -0.615042 2.106930
v -2.631876 -0.428291 3.372584
v -2.317436 -0.275049 2.788024
v -2.575748 -0.275049 2.760543
v -1.661327 -0.062653 1.586203
v -1.904732 -0.062653 1.495461
v -1.720120 0.081311 1.142791
v -2.229774 -0.673957 1.956505
v -1.986368 -0.673957 2.047247
v -2.387467 -0.088894 1.809952
v -2.548917 -0.080388 2.013278
v -2.863177 0.266012 1.633231
v -2.288420 -0.524194 2.245540
v -2.126969 -0.532699 2.042214
v -2.103243 -0.615042 2.139274
v -2.296273 -0.615042 1.965435
v -1.121332 -0.481001 1.666732
v -1.586879 -0.352684 1.776477
v -1.454044 -0.352684 1.999714
v -2.060337 -0.615042 2.034194
v -2.315188 -0.615042 2.084505
v -1.726788 -0.428291 0.818850
v -2.041227 -0.275049 1.403410
v -1.782915 -0.275049 1.430892
v -2.697337 -0.062653 1.586203
v -2.453932 -0.062653 1.495461
v -2.638543 0.081311 1.142791
v -2.128890 -0.673957 1.956505
v -2.372295 -0.673957 2.047247
v -1.971197 -0.088894 1.809952
v -1.809746 -0.080388 2.013278
v -1.495487 0.266012 1.633231
v -2.070244 -0.524194 2.245540
v -2.231695 -0.532699 2.042214
v -2.255421 -0.615042 2.139274
v -2.062391 -0.615042 1.965435
v -3.237331 -0.481001 1.666732
v -2.771784 -0.352684 1.776477
v -2.904619 -0.352684 1.999714
v -2.298327 -0.615042 2.034194
v -2.043476 -0.615042 2.084505
v -2.631876 -0.428291 0.818850
v -2.317436 -0.275049 1.403410
v -2.575748 -0.275049 1.430892
vn -0.1196 0.9395 -0.3209
vn -0.2044 0.8110 -0.5482
vn -0.2026 0.8146 -0.5435
vn -0.2606 0.6658 -0.6991
vn 0.4760 0.8093 -0.3441
vn 0.5649 0.7109 -0.4188
vn 0.5619 0.7148 -0.4163
vn 0.6288 0.6168 -0.4735
vn -0.0842 0.9922 -0.0919
vn -0.0276 0.9983 -0.0511
vn -0.2975 0.9230 -0.2441
vn 0.2327 0.9626 0.1385
vn 0.0245 0.9785 -0.2047
vn 0.0253 0.9958 -0.0885
vn 0.0211 0.8798 -0.4749
vn 0.0256 0.9703 0.2406
vn 0.1196 0.9395 -0.3209
vn 0.2026 0.8146 -0.5435
vn 0.2044 0.8110 -0.5482
vn 0.2606 0.6658 -0.6991
vn -0.4760 0.8093 -0.3441
vn -0.5619 0.7148 -0.4163
vn -0.5649 0.7109 -0.4188
vn -0.6288 0.6168 -0.4735
vn 0.0842 0.9922 -0.0919
vn 0.2975 0.9230 -0.2441
vn 0.0276 0.9983 -0.0511
vn -0.2327 0.9626 0.1385
vn -0.0245 0.9785 -0.2047
vn -0.0211 0.8798 -0.4749
vn -0.0253 0.9958 -0.0885
vn -0.0256 0.9703 0.2406
vn -0.1196 0.9395 0.3209
vn -0.2026 0.8146 0.5435
vn -0.2044 0.8110 0.5482
vn -0.2606 0.6658 0.6991
vn 0.4760 0.8093 0.3441
vn 0.5619 0.7148 0.4163
vn 0.5649 0.7109 0.4188
vn 0.6288 0.6168 0.4735
vn -0.0842 0.9922 0.0919
vn -0.2975 0.9230 0.2441
vn -0.0276 0.9983 0.0511
vn 0.2327 0.9626 -0.1385
vn 0.0245 0.9785 0.2047
vn 0.0211 0.8798 0.4749
vn 0.0253 0.9958 0.0885
vn 0.0256 0.9703 -0.2406
vn 0.1196 0.9395 0.3209
vn 0.2044 0.8110 0.5482
vn 0.2026 0.8146 0.5435
vn 0.2606 0.6658 0.6991
vn -0.4760 0.8093 0.3441
vn -0.5649 0.7109 0.4188
vn -0.5619 0.7148 0.4163
vn -0.6288 0.6168 0.4735
vn 0.0842 0.9922 0.0919
vn 0.0276 0.9983 0.0511
vn 0.2975 0.9230 0.2441
vn -0.2327 0.9626 -0.1385
vn -0.0245 0.9785 0.2047
vn -0.0253 0.9958 0.0885
vn -0.0211 0.8798 0.4749
vn -0.0256 0.9703 -0.2406
vt 1.000000 0.000000
vt 1.000000 0.500000
vt 0.000000 0.500000
vt 1.000000 1.000000
vt 0.000000 1.000000
s 1
usemtl green
f 3/1/1 1/2/2 2/3/3
f 2/3/3 1/2/2 5/4/4 4/5/4
f 8/1/5 6/2/6 7/3/7
f 7/3/7 6/2/6 10/4/8 9/5/8
f 14/3/9 15/2/10 11/4/11 12/5/11
f 13/1/12 15/2/10 14/3/9
f 19/3/13 20/2/14 16/4/15 17/5/15
f 18/1/16 20/2/14 19/3/13
f 23/1/17 22/3/18 21/2/19
f 22/3/18 24/5/20 25/4/20 21/2/19
f 28/1/21 27/3/22 26/2/23
f 27/3/22 29/5/24 30/4/24 26/2/23
f 34/3/25 32/5/26 31/4/26 35/2/27
f 33/1/28 34/3/25 35/2/27
f 39/3/29 37/5/30 36/4/30 40/2/31
f 38/1/32 39/3/29 40/2/31
f 43/1/33 42/3/34 41/2/35
f 42/3/34 44/5/36 45/4/36 41/2/35
f 48/1/37 47/3/38 46/2/39
f 47/3/38 49/5/40 50/4/40 46/2/39
f 54/3/41 52/5/42 51/4/42 55/2/43
f 53/1/44 54/3/41 55/2/43
f 59/3/45 57/5/46 56/4/46 60/2/47
f 58/1/48 59/3/45 60/2/47
f 63/1/49 61/2/50 62/3/51
f 62/3/51 61/2/50 65/4/52 64/5/52
f 68/1/53 66/2/54 67/3/55
f 67/3/55 66/2/54 70/4/56 69/5/56
f 74/3/57 75/2/58 71/4/59 72/5/59
f 73/1/60 75/2/58 74/3/57
f 79/3/61 80/2/62 76/4/63 77/5/63
f 78/1/64 80/2/62 79/3/61
