# Blender 4.0.2
# www.blender.org
mtllib stare2.mtl
o Plane.012
v 58.093510 4.903071 3.783021
v 42.501663 25.146290 -3.315202
v 41.429058 18.265978 3.010314
v 3.947879 5.051001 3.776983
v 4.282279 4.903071 -3.791780
v 19.445463 18.659002 3.776983
v 19.445463 18.659002 -3.785742
v 19.445463 4.621709 3.776983
v 3.947879 4.621709 3.776983
v 3.947879 4.621709 -3.785741
v 19.445463 4.621709 -3.785742
v 4.282279 4.903071 3.328952
v 4.282279 4.903071 -3.337709
v 19.463203 18.257648 -3.337710
v 19.514391 18.378908 2.763654
v 3.947879 4.621709 3.334445
v 3.947879 4.621709 -3.343203
v 19.445463 4.621709 -3.343204
v 19.445463 4.621709 3.334445
v 19.463203 18.257648 3.783022
v 4.282279 4.903071 3.783023
v 3.947879 5.051001 -3.785741
v 19.463203 18.257648 -3.791781
v 4.282279 4.403071 -3.337709
v 4.282279 4.403071 -3.791780
v 19.162251 4.524330 2.763654
v 19.111063 4.403071 3.783022
v 19.111061 4.403071 -3.791781
v 4.282279 4.403071 3.783023
v 4.282279 4.403071 3.328952
v 19.111061 4.403071 -3.337710
v 3.947879 5.051001 3.334445
v 3.947879 5.051001 -3.343203
v 19.445463 18.659002 -3.343204
v 19.445463 18.659002 3.334445
v 21.694214 25.357468 4.099896
v 21.752838 25.121391 -4.173659
v 19.878559 25.357468 4.099896
v 19.819935 25.121391 -4.173658
v 21.722361 24.296558 4.149654
v 21.722361 24.296558 -4.119781
v 19.850414 24.296558 4.149654
v 19.850414 24.296558 -4.119780
v 21.694214 25.357468 -4.070023
v 21.752838 25.121391 4.203532
v 19.878559 25.357468 -4.070023
v 19.819935 25.121391 4.203533
v 21.752838 24.566330 -4.173659
v 19.819935 24.566330 -4.173658
v 21.752838 24.566330 4.203532
v 19.819935 24.566330 4.203533
v 21.869747 25.246674 -4.380333
v 21.869747 25.246674 4.410207
v 19.703026 25.246674 -4.380333
v 19.703028 25.246674 4.410207
v 21.869747 24.441048 -4.380333
v 19.703026 24.441048 -4.380333
v 21.869747 24.441048 4.410207
v 19.703028 24.441048 4.410207
v 20.597673 25.290848 -2.112734
v 20.597673 18.265978 -2.112734
v 20.597673 25.290848 -2.314262
v 20.597673 18.265978 -2.314262
v 20.772202 25.290848 -2.415026
v 20.772202 18.265978 -2.415026
v 20.946732 25.290848 -2.314262
v 20.946732 18.265978 -2.314262
v 20.946732 25.290848 -2.112734
v 20.946732 18.265978 -2.112734
v 20.772202 25.290848 -2.011970
v 20.772202 18.265978 -2.011970
v 20.772202 18.265978 -2.678150
v 20.772202 25.290848 -2.678150
v 20.946732 18.265978 -2.778914
v 20.946732 25.290848 -2.778914
v 20.946732 18.265978 -2.980442
v 20.946732 25.290848 -2.980442
v 20.772202 18.265978 -3.081206
v 20.772202 25.290848 -3.081206
v 20.597673 18.265978 -2.980442
v 20.597673 25.290848 -2.980442
v 20.597673 18.265978 -2.778914
v 20.597673 25.290848 -2.778914
v 19.726736 25.363419 -3.459689
v 21.893456 25.363419 -3.459689
v 19.726736 18.037964 -3.459689
v 21.893456 18.037964 -3.459689
v 19.726736 25.363419 -4.265314
v 19.726736 18.037964 -4.265314
v 21.893456 25.363419 -4.265315
v 21.893456 18.037964 -4.265314
v 19.843647 25.191189 -3.584971
v 21.776546 25.191189 -3.584971
v 19.843647 18.210194 -3.584970
v 21.776546 18.210194 -3.584970
v 19.843647 25.191189 -4.140032
v 19.902269 18.296556 -4.376108
v 21.776546 25.191189 -4.140032
v 21.717922 18.296556 -4.376109
v 19.874123 18.255093 -3.315201
v 19.874123 25.146290 -3.315201
v 21.746071 18.255093 -3.315201
v 21.746071 25.146290 -3.315201
v 19.843647 18.210194 -4.140031
v 19.902269 25.104824 -4.376108
v 21.776546 18.210194 -4.140032
v 21.717922 25.104824 -4.376109
v 20.597673 25.290848 2.142608
v 20.597673 18.265978 2.142608
v 20.597673 25.290848 2.344136
v 20.597673 18.265978 2.344136
v 20.772202 25.290848 2.444900
v 20.772202 18.265978 2.444900
v 20.946732 25.290848 2.344136
v 20.946732 18.265978 2.344136
v 20.946732 25.290848 2.142608
v 20.946732 18.265978 2.142608
v 20.772202 25.290848 2.041844
v 20.772202 18.265978 2.041844
v 20.772202 18.265978 2.708024
v 20.772202 25.290848 2.708024
v 20.946732 18.265978 2.808788
v 20.946732 25.290848 2.808788
v 20.946732 18.265978 3.010315
v 20.946732 25.290848 3.010315
v 20.772202 18.265978 3.111079
v 20.772202 25.290848 3.111079
v 20.597673 18.265978 3.010315
v 20.597673 25.290848 3.010315
v 20.597673 18.265978 2.808788
v 20.597673 25.290848 2.808788
v 19.726738 25.363419 3.489562
v 21.893456 25.363419 3.489562
v 19.726738 18.037964 3.489562
v 21.893456 18.037964 3.489562
v 19.726738 25.363419 4.295188
v 19.726738 18.037964 4.295188
v 21.893456 25.363419 4.295188
v 21.893456 18.037964 4.295187
v 19.843647 25.191189 3.614845
v 21.776546 25.191189 3.614845
v 19.843647 18.210194 3.614844
v 21.776546 18.210194 3.614844
v 19.843647 25.191189 4.169906
v 19.902269 18.296556 4.405982
v 21.776546 25.191189 4.169906
v 21.717922 18.296556 4.405982
v 19.874123 18.255093 3.345074
v 19.874123 25.146290 3.345075
v 21.746071 18.255093 3.345074
v 21.746071 25.146290 3.345075
v 19.843647 18.210194 4.169906
v 19.902269 25.104824 4.405982
v 21.776546 18.210194 4.169905
v 21.717922 25.104824 4.405982
v 19.771133 18.659002 3.334445
v 19.771133 18.659002 3.776983
v 19.771132 18.659002 -3.785742
v 19.771132 18.659002 -3.343204
v 19.771133 4.621709 3.334445
v 19.771133 4.621709 3.776983
v 19.771132 4.621709 -3.785742
v 19.771132 4.621709 -3.343204
vn -0.6598 0.7514 -0.0000
vn -0.3525 0.9358 -0.0000
vn -0.1868 -0.9824 0.0033
vn -0.2841 -0.9588 -0.0000
vn 0.2841 -0.9588 -0.0000
vn 0.1894 -0.9819 0.0033
vn -0.0097 0.0045 -0.9999
vn 0.0150 0.0049 -0.9999
vn 0.0147 -0.0002 -0.9999
vn -0.0070 -0.0000 -1.0000
vn 0.0150 0.0049 0.9999
vn -0.0097 0.0045 0.9999
vn -0.0070 -0.0000 1.0000
vn 0.0147 -0.0002 0.9999
vn 0.0226 -0.0003 0.9997
vn -0.0000 -0.0000 1.0000
vn -0.0037 0.0050 1.0000
vn -1.0000 -0.0000 -0.0000
vn 0.2869 -0.9580 -0.0000
vn -0.0000 -1.0000 -0.0000
vn 0.2867 -0.9580 -0.0000
vn 0.9996 -0.0254 -0.0079
vn 0.9942 -0.0181 -0.1060
vn 0.9958 -0.0194 -0.0893
vn -0.2831 -0.9581 -0.0430
vn -0.1862 -0.9822 -0.0259
vn 0.0822 -0.9959 -0.0384
vn 0.2425 -0.9675 -0.0714
vn -0.6616 0.7498 -0.0045
vn -0.0152 0.0070 0.9999
vn -0.0152 0.0070 -0.9999
vn -0.0037 0.0050 -1.0000
vn -0.5472 -0.8370 -0.0000
vn 0.3206 -0.9466 -0.0355
vn 0.2568 -0.9660 -0.0284
vn 0.0226 -0.0003 -0.9997
vn -0.0181 -0.0000 -0.9998
vn -0.0181 -0.0000 0.9998
vn -0.0164 -0.0000 -0.9999
vn -0.2604 0.2773 -0.9248
vn -0.2631 0.2804 -0.9231
vn -0.0139 0.0063 0.9999
vn -0.0164 -0.0000 0.9999
vn -0.0138 0.0064 0.9999
vn 0.0205 -0.0003 0.9998
vn -0.0033 0.0045 1.0000
vn 0.0158 0.0051 0.9999
vn 0.0356 -0.0004 0.9994
vn 0.9835 -0.0124 -0.1805
vn -0.4702 0.5185 -0.7142
vn 0.8955 0.4451 -0.0000
vn 0.8955 -0.4451 -0.0000
vn -0.8955 0.4451 -0.0000
vn -0.8955 -0.4451 -0.0000
vn 0.2320 0.9655 -0.1180
vn -0.2320 0.9655 -0.1180
vn -0.2320 0.9655 0.1180
vn 0.2320 0.9655 0.1180
vn -0.0000 -0.0000 -1.0000
vn -0.3154 -0.9318 -0.1795
vn 0.3154 -0.9318 -0.1795
vn 0.3154 -0.9318 0.1795
vn -0.3154 -0.9318 0.1795
vn 0.7311 -0.6823 -0.0000
vn -0.7311 -0.6823 -0.0000
vn -0.0000 -0.8552 0.5184
vn -0.0000 -0.8552 -0.5184
vn -0.0000 0.8552 -0.5184
vn -0.0000 0.8552 0.5184
vn -0.7311 0.6823 -0.0000
vn 0.7311 0.6823 -0.0000
vn 0.1978 0.9533 0.2285
vn 0.1978 0.9533 -0.2285
vn -0.1978 0.9533 -0.2285
vn -0.1978 0.9533 0.2285
vn -0.0000 -0.8745 -0.4850
vn -0.0000 -0.8745 0.4850
vn -0.7001 -0.7141 -0.0000
vn 0.7001 -0.7141 -0.0000
vn -0.5000 -0.0000 0.8660
vn -0.0000 1.0000 -0.0000
vn -0.5000 -0.0000 -0.8660
vn 0.5000 -0.0000 -0.8660
vn 1.0000 -0.0000 -0.0000
vn 0.5000 -0.0000 0.8660
vn -0.8986 -0.0000 -0.4388
vn -0.7311 -0.0000 -0.6823
vn 0.2259 0.1439 -0.9635
vn 0.2261 0.2499 -0.9415
vn 0.2261 -0.2499 -0.9415
vn 0.2259 -0.1439 -0.9635
vn 0.8986 -0.0000 -0.4388
vn 0.7311 -0.0000 -0.6823
vn -0.2259 -0.1439 -0.9635
vn -0.2261 -0.2499 -0.9415
vn -0.2261 0.2499 -0.9415
vn -0.2259 0.1439 -0.9635
vn -0.0000 0.5882 -0.8087
vn -0.0000 -0.5882 -0.8087
vn -0.0000 -0.5882 0.8087
vn -0.0000 0.5882 0.8087
vn 0.8986 -0.0000 0.4388
vn 0.7311 -0.0000 0.6823
vn -0.8986 -0.0000 0.4388
vn -0.3086 -0.2138 0.9269
vn 0.3086 -0.2138 0.9269
vn 0.3086 0.2138 0.9268
vn -0.3086 0.2138 0.9268
vn -0.7311 -0.0000 0.6823
vn -0.0000 -0.5540 0.8325
vn -0.0000 0.5540 0.8325
vn -0.7001 -0.0000 0.7141
vn 0.7001 -0.0000 0.7141
vn 0.2259 0.1439 0.9635
vn 0.2259 -0.1439 0.9635
vn 0.2261 -0.2499 0.9415
vn 0.2261 0.2499 0.9415
vn -0.2259 -0.1439 0.9635
vn -0.2259 0.1439 0.9635
vn -0.2261 0.2499 0.9415
vn -0.2261 -0.2499 0.9415
vn -0.3086 -0.2138 -0.9269
vn -0.3086 0.2138 -0.9268
vn 0.3086 0.2138 -0.9268
vn 0.3086 -0.2138 -0.9269
vn -0.0000 -0.5540 -0.8325
vn -0.0000 0.5540 -0.8325
vn -0.7001 -0.0000 -0.7141
vn 0.7001 -0.0000 -0.7141
vt 1.124546 -0.900000
vt 1.124546 1.900000
vt 1.207325 1.900000
vt 1.207325 -0.900000
vt 1.123519 -0.837449
vt 1.208455 -0.837449
vt 1.208455 1.837448
vt 1.123519 1.837448
vt -0.837448 -0.739799
vt 1.837448 1.691925
vt 1.837448 -0.833326
vt -0.837448 -0.833326
vt 1.900000 -0.792429
vt 1.900000 1.833327
vt 1.124546 -0.712128
vt 1.207325 -0.712128
vt 1.207325 -0.792429
vt 1.124546 -0.792429
vt -0.207325 -0.712128
vt -0.124546 -0.712128
vt -0.124546 -0.792429
vt -0.207325 -0.792429
vt -0.123518 -0.739799
vt 1.123519 -0.739799
vt 1.123519 -0.833326
vt -0.123518 -0.833326
vt 1.123519 1.691925
vt -0.123518 1.691925
vt -0.208455 -0.837449
vt -0.123518 -0.837449
vt -0.123518 1.837448
vt -0.208455 1.837448
vt -0.207325 -0.900000
vt -0.207325 1.900000
vt -0.124546 1.900000
vt -0.124546 -0.900000
vt -0.900000 -0.712128
vt -0.900000 -0.792429
vt 1.168224 1.281574
vt 1.168224 1.438117
vt -0.168224 1.438117
vt -0.168224 1.281574
vt 1.151690 1.137098
vt 1.151690 -0.127704
vt -0.151690 -0.127704
vt -0.151690 1.137098
vt 1.148935 1.281574
vt -0.148935 1.281574
vt -0.148935 1.438117
vt 1.148935 1.438117
vt 1.159628 -0.135642
vt 1.159628 1.145036
vt -0.159628 1.145036
vt -0.159628 -0.135642
vt 1.201195 1.473450
vt -0.201195 1.473450
vt 1.181906 1.473450
vt -0.181906 1.473450
vt 1.181906 1.246241
vt -0.181906 1.246241
vt 1.201195 1.246241
vt -0.201195 1.246241
vt -0.201195 1.186603
vt 1.201195 1.186603
vt 1.201195 -0.177209
vt -0.201195 -0.177209
vt 1.060125 0.327892
vt 1.010903 0.299473
vt 1.010903 0.242637
vt 1.060125 0.214218
vt 1.109347 0.242637
vt 1.109347 0.299473
vt 1.010903 -0.495303
vt 1.060125 -0.495303
vt 1.060125 1.485909
vt 1.010903 1.485909
vt 0.237940 -0.495303
vt 0.294776 -0.495303
vt 0.294776 1.485909
vt 0.237940 1.485909
vt 1.109347 -0.495303
vt 1.109347 1.485909
vt 0.001324 -0.495303
vt -0.055513 -0.495303
vt -0.055513 1.485909
vt 0.001324 1.485909
vt 1.109347 0.006021
vt 1.109347 -0.050816
vt 1.060125 -0.079234
vt 1.010903 -0.050816
vt 1.010903 0.006021
vt 1.060125 0.034439
vt -0.124546 1.833327
vt -0.207325 1.833327
vt 1.207325 1.833327
vt 1.124546 1.833327
s 1
usemtl stone
f 33/1/1 34/2/2 7/3/2 22/4/1
f 24/5/3 25/6/4 28/7/5 31/8/6
f 5/9/7 23/10/8 28/11/9 25/12/10
f 20/10/11 21/9/12 29/12/13 27/11/14
f 8/13/15 161/13/16 157/14/16 6/14/17
f 33/15/18 22/16/18 10/17/18 17/18/18
f 4/19/18 32/20/18 16/21/18 9/22/18
f 12/23/18 13/24/18 24/25/18 30/26/18
f 11/3/19 162/3/20 163/2/20 18/2/21
f 14/27/22 15/28/23 26/26/24 31/25/22
f 29/29/25 30/30/26 26/31/27 27/32/28
f 30/30/26 24/5/3 31/8/6 26/31/27
f 4/33/1 6/34/2 35/35/2 32/36/1
f 12/30/29 15/31/29 14/8/29 13/5/29
f 6/14/17 4/37/30 21/9/12 20/10/11
f 22/37/31 7/14/32 23/10/8 5/9/7
f 17/1/33 10/4/33 25/6/4 24/5/3
f 19/35/34 8/34/35 27/32/28 26/31/27
f 7/14/32 11/13/36 28/11/9 23/10/8
f 10/38/37 22/37/31 5/9/7 25/12/10
f 4/37/30 9/38/38 29/12/13 21/9/12
f 8/13/15 6/14/17 20/10/11 27/11/14
f 9/33/33 16/36/33 30/30/26 29/29/25
f 11/3/19 18/2/21 31/8/6 28/7/5
f 16/38/39 32/37/40 12/9/41 30/12/39
f 33/37/42 17/38/43 24/12/43 13/9/44
f 18/13/45 34/14/46 14/10/47 31/11/48
f 35/14/49 19/13/49 26/11/24 15/10/23
f 32/37/40 35/14/50 15/10/50 12/9/41
f 34/14/46 33/37/42 13/9/44 14/10/47
f 48/39/51 37/40/52 45/41/52 50/42/51
f 49/39/53 51/42/53 47/41/54 39/40/54
f 44/43/55 46/44/56 38/45/57 36/46/58
f 48/47/59 49/48/59 39/49/59 37/50/59
f 45/50/16 47/49/16 51/48/16 50/47/16
f 43/51/60 41/52/61 40/53/62 42/54/63
f 37/40/52 52/55/64 53/56/64 45/41/52
f 47/41/54 55/56/65 54/55/65 39/40/54
f 45/50/66 53/57/66 55/58/66 47/49/66
f 39/49/67 54/58/67 52/57/67 37/50/67
f 48/47/68 56/59/68 57/60/68 49/48/68
f 51/48/69 59/60/69 58/59/69 50/47/69
f 49/39/53 57/61/70 59/62/70 51/42/53
f 50/42/51 58/62/71 56/61/71 48/39/51
f 36/46/58 53/63/72 52/64/73 44/43/55
f 46/44/56 54/65/74 55/66/75 38/45/57
f 38/45/57 55/66/75 53/63/72 36/46/58
f 44/43/55 52/64/73 54/65/74 46/44/56
f 43/51/60 57/65/76 56/64/76 41/52/61
f 40/53/62 58/63/77 59/66/77 42/54/63
f 42/54/63 59/66/78 57/65/78 43/51/60
f 41/52/61 56/64/79 58/63/79 40/53/62
f 71/67/20 61/68/20 63/69/20 65/70/20 67/71/20 69/72/20
f 61/73/80 71/74/80 70/75/80 60/76/80
f 63/77/18 61/78/18 60/79/18 62/80/18
f 68/72/81 66/71/81 64/70/81 62/69/81 60/68/81 70/67/81
f 65/74/82 63/73/82 62/76/82 64/75/82
f 67/81/83 65/74/83 64/75/83 66/82/83
f 69/78/84 67/77/84 66/80/84 68/79/84
f 71/74/85 69/81/85 68/82/85 70/75/85
f 72/74/85 74/81/85 75/82/85 73/75/85
f 74/83/84 76/84/84 77/85/84 75/86/84
f 76/81/83 78/74/83 79/75/83 77/82/83
f 78/74/82 80/73/82 81/76/82 79/75/82
f 75/87/81 77/88/81 79/89/81 81/90/81 83/91/81 73/92/81
f 80/84/18 82/83/18 83/86/18 81/85/18
f 82/73/80 72/74/80 73/75/80 83/76/80
f 72/92/20 82/91/20 80/90/20 78/89/20 76/88/20 74/87/20
f 94/39/86 86/61/87 84/62/87 92/42/86
f 107/46/88 90/63/89 91/64/90 99/43/91
f 93/42/92 85/62/93 87/61/93 95/39/92
f 97/44/94 89/65/95 88/66/96 105/45/97
f 92/48/98 84/60/98 85/59/98 93/47/98
f 95/47/99 87/59/99 86/60/99 94/48/99
f 104/49/100 89/58/100 91/57/100 106/50/100
f 98/50/101 90/57/101 88/58/101 96/49/101
f 106/40/102 91/55/103 90/56/103 98/41/102
f 95/47/20 94/48/20 104/49/20 106/50/20
f 99/43/91 97/44/94 105/45/97 107/46/88
f 94/39/86 92/42/86 96/41/104 104/40/104
f 98/50/81 96/49/81 92/48/81 93/47/81
f 95/39/92 106/40/102 98/41/102 93/42/92
f 100/51/105 102/52/106 103/53/107 101/54/108
f 96/41/104 88/56/109 89/55/109 104/40/104
f 105/45/97 88/66/96 90/63/89 107/46/88
f 99/43/91 91/64/90 89/65/95 97/44/94
f 100/51/105 86/65/110 87/64/110 102/52/106
f 103/53/107 85/63/111 84/66/111 101/54/108
f 101/54/108 84/66/112 86/65/112 100/51/105
f 102/52/106 87/64/113 85/63/113 103/53/107
f 119/67/20 117/72/20 115/71/20 113/70/20 111/69/20 109/68/20
f 109/73/82 108/76/82 118/75/82 119/74/82
f 111/77/18 110/80/18 108/79/18 109/78/18
f 116/72/81 118/67/81 108/68/81 110/69/81 112/70/81 114/71/81
f 113/74/80 112/75/80 110/76/80 111/73/80
f 115/81/85 114/82/85 112/75/85 113/74/85
f 117/78/84 116/79/84 114/80/84 115/77/84
f 119/74/83 118/75/83 116/82/83 117/81/83
f 120/74/83 121/75/83 123/82/83 122/81/83
f 122/83/84 123/86/84 125/85/84 124/84/84
f 124/81/85 125/82/85 127/75/85 126/74/85
f 126/74/80 127/75/80 129/76/80 128/73/80
f 123/87/81 121/92/81 131/91/81 129/90/81 127/89/81 125/88/81
f 128/84/18 129/85/18 131/86/18 130/83/18
f 130/73/82 131/76/82 121/75/82 120/74/82
f 120/92/20 122/87/20 124/88/20 126/89/20 128/90/20 130/91/20
f 142/39/104 140/42/104 132/62/109 134/61/109
f 155/46/114 147/43/115 139/64/116 138/63/117
f 141/42/102 143/39/102 135/61/103 133/62/103
f 145/44/118 153/45/119 136/66/120 137/65/121
f 140/48/101 141/47/101 133/59/101 132/60/101
f 143/47/100 142/48/100 134/60/100 135/59/100
f 152/49/99 154/50/99 139/57/99 137/58/99
f 146/50/98 144/49/98 136/58/98 138/57/98
f 154/40/92 146/41/92 138/56/93 139/55/93
f 143/47/20 154/50/20 152/49/20 142/48/20
f 147/43/115 155/46/114 153/45/119 145/44/118
f 142/39/104 152/40/86 144/41/86 140/42/104
f 146/50/81 141/47/81 140/48/81 144/49/81
f 143/39/102 141/42/102 146/41/92 154/40/92
f 148/51/122 149/54/123 151/53/124 150/52/125
f 144/41/86 152/40/86 137/55/87 136/56/87
f 153/45/119 155/46/114 138/63/117 136/66/120
f 147/43/115 145/44/118 137/65/121 139/64/116
f 148/51/122 150/52/125 135/64/126 134/65/126
f 151/53/124 149/54/123 132/66/127 133/63/127
f 149/54/123 148/51/122 134/65/128 132/66/128
f 150/52/125 151/53/124 133/63/129 135/64/129
f 156/93/84 157/94/84 161/22/84 160/21/84
f 158/95/84 159/96/84 163/18/84 162/17/84
f 19/35/34 160/35/20 161/34/20 8/34/35
f 18/13/45 163/13/16 159/14/16 34/14/46
f 6/34/2 157/34/81 156/35/81 35/35/2
f 34/2/2 159/2/81 158/3/81 7/3/2
f 7/14/32 158/14/59 162/13/59 11/13/36
f 35/14/59 156/14/59 160/13/59 19/13/59
