# Created by Kenney (www.kenney.nl)

mtllib border-corner.mtl

g border-corner

v -0.1629409 0.1 0.2115113 1 1 1
v -0.15 0.05 0.2598076 1 1 1
v -0.2224444 0.1 0.2792191 1 1 1
v -0.07755556 0.1 0.2403962 1 1 1
v 0.2792191 0.4 -0.2224444 1 1 1
v 0.2598076 0.35 -0.15 1 1 1
v 0.2115113 0.4 -0.1629409 1 1 1
v 0.2403962 0.4 -0.07755556 1 1 1
v -0.5 0.3 -0.3 1 1 1
v -0.3 0.3 -0.3 1 1 1
v -0.5 0.4 -0.3 1 1 1
v -0.3 0.4 -0.3 1 1 1
v 0.3 0.4 -0.5 1 1 1
v 0.3 0.4 -0.3 1 1 1
v -0.3 0.4 -0.5 1 1 1
v 1.588205E-14 0.4 0.2196153 1 1 1
v 0.2196153 0.4 -7.219114E-16 1 1 1
v -0.3 0.4 0.3 1 1 1
v -0.5 0.4 0.3 1 1 1
v 0.2196153 0.3 -7.219114E-16 1 1 1
v 1.588205E-14 0.3 0.2196153 1 1 1
v -0.5 0 -0.3 1 1 1
v -0.5 0 0.3 1 1 1
v -0.3 0 -0.3 1 1 1
v -0.3 0 0.3 1 1 1
v -0.3 0 -0.5 1 1 1
v 1.588205E-14 0 0.2196153 1 1 1
v 0.2196153 0 -7.219114E-16 1 1 1
v 0.3 0 -0.5 1 1 1
v 0.3 0 -0.3 1 1 1
v 0.3 0.3 -0.5 1 1 1
v 0.3 0.3 -0.3 1 1 1
v -0.3 0.3 0.3 1 1 1
v -0.5 0.3 0.3 1 1 1
v -0.3 0.3 -0.5 1 1 1
v -0.2 0.3 -0.5 1 1 1
v 0.2 0.3 -0.5 1 1 1
v 0.2 0.1 -0.5 1 1 1
v -0.2 0.1 -0.5 1 1 1
v 0.3 0.1 -0.5 1 1 1
v -0.3 0.1 -0.5 1 1 1
v -0.5 0.1 -0.3 1 1 1
v -0.5 0.1 -0.2 1 1 1
v -0.5 0.3 -0.2 1 1 1
v -0.5 0.1 0.2 1 1 1
v -0.5 0.1 0.3 1 1 1
v -0.5 0.3 0.2 1 1 1
v 0.3 0.1 -0.3 1 1 1
v 0.2196153 0.1 -7.219114E-16 1 1 1
v -0.3 0.1 -0.3 1 1 1
v 1.588205E-14 0.1 0.2196153 1 1 1
v -0.3 0.1 0.3 1 1 1
v -0.05176381 0.1 0.1299577 1 1 1
v -0.1824645 0.1 0.1649788 1 1 1
v -0.05176381 0.3 0.1299577 1 1 1
v -0.3131652 0.1 0.2 1 1 1
v -0.3131652 0.3 0.2 1 1 1
v 0.1299577 0.3 -0.05176381 1 1 1
v 0.2 0.3 -0.3131652 1 1 1
v 0.2 0.1 -0.3131652 1 1 1
v 0.1299577 0.1 -0.05176381 1 1 1
v -0.2 0.1 -0.2 1 1 1
v -0.2 0.3 -0.2 1 1 1

vn 0.1830127 0.7071068 0.6830127
vn 0.5774134 0.6396022 0.5074474
vn -0.2463309 0.6396021 0.728169
vn 0.5074474 0.6396021 0.5774134
vn 0.6830127 0.7071068 0.1830127
vn 0.728169 0.6396021 -0.2463309
vn 0 0 -1
vn 0 1 0
vn 0.8660254 0 0.5
vn 0.5 0 0.8660254
vn 0 -1 0
vn 1 0 0
vn 0.9914449 0 0.1305262
vn 0.9914449 0 0.1305262
vn 0.1305262 0 0.9914449
vn 0 0 1
vn -1 0 0
vn 0.258819 0 0.9659258
vn 0.9659258 0 0.258819

vt 0.96875 0.075
vt 0.96875 0.05
vt 0.96875 0.225
vt 0.96875 0.2
vt 0.96875 0.175
vt 0.96875 0.025
vt 0.71875 0.075
vt 0.71875 0.175

usemtl colormap

f 3/1/2 2/2/1 1/1/1
f 4/1/3 1/1/1 2/2/1
f 7/3/5 6/4/5 5/3/4
f 8/3/6 6/4/5 7/3/5
f 11/3/7 10/5/7 9/5/7
f 10/5/7 11/3/7 12/3/7
f 15/3/8 14/3/8 13/3/8
f 14/3/8 15/3/8 5/3/8
f 5/3/8 15/3/8 7/3/8
f 7/3/8 15/3/8 16/3/8
f 17/3/8 7/3/8 16/3/8
f 7/3/8 17/3/8 8/3/8
f 16/3/8 15/3/8 18/3/8
f 18/3/8 15/3/8 12/3/8
f 18/3/8 12/3/8 11/3/8
f 18/3/8 11/3/8 19/3/8
f 16/3/10 20/5/9 17/3/9
f 20/5/9 16/3/10 21/5/10
f 24/6/11 23/6/11 22/6/11
f 23/6/11 24/6/11 25/6/11
f 26/6/11 25/6/11 24/6/11
f 26/6/11 27/6/11 25/6/11
f 26/6/11 28/6/11 27/6/11
f 29/6/11 28/6/11 26/6/11
f 28/6/11 29/6/11 30/6/11
f 14/3/13 31/5/12 13/3/12
f 31/5/12 14/3/13 32/5/14
f 18/3/15 34/5/16 33/5/15
f 34/5/16 18/3/15 19/3/16
f 15/3/7 36/5/7 35/5/7
f 36/5/7 15/3/7 37/5/7
f 37/5/7 15/3/7 31/5/7
f 31/5/7 15/3/7 13/3/7
f 38/1/7 36/5/7 37/5/7
f 36/5/7 38/1/7 39/1/7
f 40/1/7 39/1/7 38/1/7
f 40/1/7 41/1/7 39/1/7
f 29/6/7 41/1/7 40/1/7
f 41/1/7 29/6/7 26/6/7
f 10/5/17 15/3/17 35/5/17
f 15/3/17 10/5/17 12/3/17
f 23/6/17 42/1/17 22/6/17
f 42/1/17 23/6/17 43/1/17
f 43/1/17 23/6/17 44/5/17
f 44/5/17 23/6/17 45/1/17
f 45/1/17 23/6/17 46/1/17
f 47/5/17 44/5/17 45/1/17
f 19/3/17 44/5/17 47/5/17
f 19/3/17 47/5/17 34/5/17
f 11/3/17 44/5/17 19/3/17
f 44/5/17 11/3/17 9/5/17
f 16/3/10 33/5/15 21/5/10
f 33/5/15 16/3/10 18/3/15
f 49/1/9 30/6/14 48/1/14
f 30/6/14 49/1/9 28/6/9
f 24/6/17 41/1/17 26/6/17
f 41/1/17 24/6/17 50/1/17
f 48/1/14 29/6/12 40/1/12
f 29/6/12 48/1/14 30/6/14
f 51/1/10 28/6/9 49/1/9
f 28/6/9 51/1/10 27/6/10
f 42/1/7 24/6/7 22/6/7
f 24/6/7 42/1/7 50/1/7
f 52/1/15 23/6/16 25/6/15
f 23/6/16 52/1/15 46/1/16
f 2/2/18 51/1/10 4/1/18
f 2/2/18 27/6/10 51/1/10
f 27/6/10 2/2/18 25/6/15
f 2/2/18 52/1/15 25/6/15
f 52/1/15 2/2/18 3/1/18
f 5/3/19 32/5/14 14/3/13
f 32/5/14 5/3/19 6/4/19
f 32/5/14 6/4/19 20/5/9
f 20/5/9 6/4/19 8/3/19
f 20/5/9 8/3/19 17/3/9
f 55/8/10 54/7/18 53/7/10
f 54/7/18 55/8/10 56/7/15
f 56/7/15 55/8/10 57/8/15
f 57/8/11 34/8/11 47/8/11
f 57/8/11 33/8/11 34/8/11
f 55/8/11 33/8/11 57/8/11
f 55/8/11 21/8/11 33/8/11
f 58/8/11 21/8/11 55/8/11
f 58/8/11 20/8/11 21/8/11
f 20/8/11 58/8/11 59/8/11
f 37/8/11 20/8/11 59/8/11
f 31/8/11 20/8/11 37/8/11
f 20/8/11 31/8/11 32/8/11
f 59/8/14 38/7/12 37/8/12
f 38/7/12 59/8/14 60/7/14
f 58/8/9 60/7/14 59/8/14
f 60/7/14 58/8/9 61/7/9
f 57/8/15 45/7/16 56/7/15
f 45/7/16 57/8/15 47/8/16
f 55/8/10 61/7/9 58/8/9
f 61/7/9 55/8/10 53/7/10
f 41/7/8 62/7/8 39/7/8
f 62/7/8 41/7/8 50/7/8
f 62/7/8 50/7/8 43/7/8
f 43/7/8 50/7/8 42/7/8
f 10/8/11 44/8/11 9/8/11
f 10/8/11 63/8/11 44/8/11
f 63/8/11 10/8/11 36/8/11
f 35/8/11 36/8/11 10/8/11
f 62/7/17 36/8/17 39/7/17
f 36/8/17 62/7/17 63/8/17
f 44/8/7 62/7/7 43/7/7
f 62/7/7 44/8/7 63/8/7
f 38/7/8 48/7/8 40/7/8
f 48/7/8 38/7/8 49/7/8
f 49/7/8 38/7/8 60/7/8
f 49/7/8 60/7/8 61/7/8
f 49/7/8 61/7/8 51/7/8
f 51/7/8 61/7/8 53/7/8
f 51/7/8 53/7/8 4/7/8
f 4/7/8 53/7/8 54/7/8
f 4/7/8 54/7/8 1/7/8
f 1/7/8 54/7/8 3/7/8
f 3/7/8 54/7/8 56/7/8
f 3/7/8 56/7/8 52/7/8
f 52/7/8 56/7/8 46/7/8
f 46/7/8 56/7/8 45/7/8

g border-corner




usemtl colormap

f 3/1/2 2/2/1 1/1/1
f 4/1/3 1/1/1 2/2/1
f 7/3/5 6/4/5 5/3/4
f 8/3/6 6/4/5 7/3/5
f 11/3/7 10/5/7 9/5/7
f 10/5/7 11/3/7 12/3/7
f 15/3/8 14/3/8 13/3/8
f 14/3/8 15/3/8 5/3/8
f 5/3/8 15/3/8 7/3/8
f 7/3/8 15/3/8 16/3/8
f 17/3/8 7/3/8 16/3/8
f 7/3/8 17/3/8 8/3/8
f 16/3/8 15/3/8 18/3/8
f 18/3/8 15/3/8 12/3/8
f 18/3/8 12/3/8 11/3/8
f 18/3/8 11/3/8 19/3/8
f 16/3/10 20/5/9 17/3/9
f 20/5/9 16/3/10 21/5/10
f 24/6/11 23/6/11 22/6/11
f 23/6/11 24/6/11 25/6/11
f 26/6/11 25/6/11 24/6/11
f 26/6/11 27/6/11 25/6/11
f 26/6/11 28/6/11 27/6/11
f 29/6/11 28/6/11 26/6/11
f 28/6/11 29/6/11 30/6/11
f 14/3/13 31/5/12 13/3/12
f 31/5/12 14/3/13 32/5/14
f 18/3/15 34/5/16 33/5/15
f 34/5/16 18/3/15 19/3/16
f 15/3/7 36/5/7 35/5/7
f 36/5/7 15/3/7 37/5/7
f 37/5/7 15/3/7 31/5/7
f 31/5/7 15/3/7 13/3/7
f 38/1/7 36/5/7 37/5/7
f 36/5/7 38/1/7 39/1/7
f 40/1/7 39/1/7 38/1/7
f 40/1/7 41/1/7 39/1/7
f 29/6/7 41/1/7 40/1/7
f 41/1/7 29/6/7 26/6/7
f 10/5/17 15/3/17 35/5/17
f 15/3/17 10/5/17 12/3/17
f 23/6/17 42/1/17 22/6/17
f 42/1/17 23/6/17 43/1/17
f 43/1/17 23/6/17 44/5/17
f 44/5/17 23/6/17 45/1/17
f 45/1/17 23/6/17 46/1/17
f 47/5/17 44/5/17 45/1/17
f 19/3/17 44/5/17 47/5/17
f 19/3/17 47/5/17 34/5/17
f 11/3/17 44/5/17 19/3/17
f 44/5/17 11/3/17 9/5/17
f 16/3/10 33/5/15 21/5/10
f 33/5/15 16/3/10 18/3/15
f 49/1/9 30/6/14 48/1/14
f 30/6/14 49/1/9 28/6/9
f 24/6/17 41/1/17 26/6/17
f 41/1/17 24/6/17 50/1/17
f 48/1/14 29/6/12 40/1/12
f 29/6/12 48/1/14 30/6/14
f 51/1/10 28/6/9 49/1/9
f 28/6/9 51/1/10 27/6/10
f 42/1/7 24/6/7 22/6/7
f 24/6/7 42/1/7 50/1/7
f 52/1/15 23/6/16 25/6/15
f 23/6/16 52/1/15 46/1/16
f 2/2/18 51/1/10 4/1/18
f 2/2/18 27/6/10 51/1/10
f 27/6/10 2/2/18 25/6/15
f 2/2/18 52/1/15 25/6/15
f 52/1/15 2/2/18 3/1/18
f 5/3/19 32/5/14 14/3/13
f 32/5/14 5/3/19 6/4/19
f 32/5/14 6/4/19 20/5/9
f 20/5/9 6/4/19 8/3/19
f 20/5/9 8/3/19 17/3/9
f 55/8/10 54/7/18 53/7/10
f 54/7/18 55/8/10 56/7/15
f 56/7/15 55/8/10 57/8/15
f 57/8/11 34/8/11 47/8/11
f 57/8/11 33/8/11 34/8/11
f 55/8/11 33/8/11 57/8/11
f 55/8/11 21/8/11 33/8/11
f 58/8/11 21/8/11 55/8/11
f 58/8/11 20/8/11 21/8/11
f 20/8/11 58/8/11 59/8/11
f 37/8/11 20/8/11 59/8/11
f 31/8/11 20/8/11 37/8/11
f 20/8/11 31/8/11 32/8/11
f 59/8/14 38/7/12 37/8/12
f 38/7/12 59/8/14 60/7/14
f 58/8/9 60/7/14 59/8/14
f 60/7/14 58/8/9 61/7/9
f 57/8/15 45/7/16 56/7/15
f 45/7/16 57/8/15 47/8/16
f 55/8/10 61/7/9 58/8/9
f 61/7/9 55/8/10 53/7/10
f 41/7/8 62/7/8 39/7/8
f 62/7/8 41/7/8 50/7/8
f 62/7/8 50/7/8 43/7/8
f 43/7/8 50/7/8 42/7/8
f 10/8/11 44/8/11 9/8/11
f 10/8/11 63/8/11 44/8/11
f 63/8/11 10/8/11 36/8/11
f 35/8/11 36/8/11 10/8/11
f 62/7/17 36/8/17 39/7/17
f 36/8/17 62/7/17 63/8/17
f 44/8/7 62/7/7 43/7/7
f 62/7/7 44/8/7 63/8/7
f 38/7/8 48/7/8 40/7/8
f 48/7/8 38/7/8 49/7/8
f 49/7/8 38/7/8 60/7/8
f 49/7/8 60/7/8 61/7/8
f 49/7/8 61/7/8 51/7/8
f 51/7/8 61/7/8 53/7/8
f 51/7/8 53/7/8 4/7/8
f 4/7/8 53/7/8 54/7/8
f 4/7/8 54/7/8 1/7/8
f 1/7/8 54/7/8 3/7/8
f 3/7/8 54/7/8 56/7/8
f 3/7/8 56/7/8 52/7/8
f 52/7/8 56/7/8 46/7/8
f 46/7/8 56/7/8 45/7/8

