# Created by Kenney (www.kenney.nl)

mtllib column.mtl

g column

v -0.2984375 0.85 -0.25 1 1 1
v -0.2984375 1 -0.25 1 1 1
v -0.2984375 0.85 0.25 1 1 1
v -0.2984375 1 0.25 1 1 1
v 0.2515625 0.85 -0.3 1 1 1
v 0.3015625 0.85 -0.25 1 1 1
v 0.2515625 1 -0.3 1 1 1
v 0.3015625 1 -0.25 1 1 1
v 0.3015625 0.85 0.25 1 1 1
v 0.2515625 0.85 0.3 1 1 1
v -0.2484375 0.85 0.3 1 1 1
v -0.2484375 0.85 -0.3 1 1 1
v 0.3015625 1 0.25 1 1 1
v 0.2515625 1 0.3 1 1 1
v -0.2484375 1 -0.3 1 1 1
v -0.2484375 1 0.3 1 1 1
v -0.2984375 0 -0.25 1 1 1
v -0.2484375 0 -0.3 1 1 1
v -0.2984375 0.15 -0.25 1 1 1
v -0.2484375 0.15 -0.3 1 1 1
v -0.2484375 0 0.3 1 1 1
v -0.2984375 0 0.25 1 1 1
v -0.2484375 0.15 0.3 1 1 1
v -0.2984375 0.15 0.25 1 1 1
v 0.3015625 0 0.25 1 1 1
v 0.2515625 0 0.3 1 1 1
v 0.3015625 0.15 0.25 1 1 1
v 0.2515625 0.15 0.3 1 1 1
v 0.2515625 0 -0.3 1 1 1
v 0.2515625 0.15 -0.3 1 1 1
v 0.3015625 0.15 -0.25 1 1 1
v 0.3015625 0 -0.25 1 1 1
v -0.2722732 0.7085786 -0.2 1 1 1
v -0.3015625 0.7792893 -0.2 1 1 1
v -0.2722732 0.7085786 0.2 1 1 1
v -0.3015625 0.7792893 0.2 1 1 1
v -0.1308518 0.7085786 0.2 1 1 1
v -0.1308518 0.7085786 -0.2 1 1 1
v -0.2015625 0.6792893 0.2 1 1 1
v -0.2015625 0.6792893 -0.2 1 1 1
v 0.1984375 0.6792893 0.2 1 1 1
v 0.1984375 0.6792893 -0.2 1 1 1
v 0.1277268 0.7085786 0.2 1 1 1
v 0.1277268 0.7085786 -0.2 1 1 1
v 0.0984375 0.7792893 -0.2 1 1 1
v 0.0984375 0.7792893 0.2 1 1 1
v 0.2691482 0.85 -0.2 1 1 1
v 0.2984375 0.7792893 -0.2 1 1 1
v 0.2691482 0.85 0.2 1 1 1
v 0.2984375 0.7792893 0.2 1 1 1
v -0.2722732 0.85 -0.2 1 1 1
v -0.2722732 0.85 0.2 1 1 1
v 0.2691482 0.7085786 0.2 1 1 1
v 0.2691482 0.7085786 -0.2 1 1 1
v -0.1015625 0.7792893 0.2 1 1 1
v -0.1015625 0.7792893 -0.2 1 1 1
v 0.2515625 0.25 -0.2292893 1 1 1
v 0.2515625 0.25 0.2292893 1 1 1
v 0.2308518 0.25 -0.25 1 1 1
v 0.2308518 0.25 0.25 1 1 1
v -0.2277268 0.25 -0.25 1 1 1
v -0.2277268 0.25 0.25 1 1 1
v -0.2484375 0.25 -0.2292893 1 1 1
v -0.2484375 0.25 0.2292893 1 1 1
v -0.2484375 0.15 0.2292893 1 1 1
v -0.2277268 0.15 0.25 1 1 1
v -0.2484375 0.15 -0.2292893 1 1 1
v -0.2277268 0.15 -0.25 1 1 1
v 0.2515625 0.15 0.2292893 1 1 1
v 0.2308518 0.15 0.25 1 1 1
v 0.2515625 0.15 -0.2292893 1 1 1
v 0.2308518 0.15 -0.25 1 1 1
v -0.1606615 0.25 0.06590097 1 1 1
v -0.1606615 0.85 0.06590097 1 1 1
v -0.1606615 0.25 0.1193243 1 1 1
v -0.1606615 0.85 0.1193243 1 1 1
v -0.06746347 0.25 0.159099 1 1 1
v -0.1208868 0.25 0.159099 1 1 1
v -0.06746347 0.85 0.159099 1 1 1
v -0.1208868 0.85 0.159099 1 1 1
v -0.1606615 0.25 -0.1193243 1 1 1
v -0.1208868 0.25 -0.159099 1 1 1
v -0.1606615 0.85 -0.1193243 1 1 1
v -0.1208868 0.85 -0.159099 1 1 1
v -0.1606615 0.25 -0.06590097 1 1 1
v -0.1606615 0.85 -0.06590097 1 1 1
v -0.06746347 0.25 -0.159099 1 1 1
v -0.06746347 0.85 -0.159099 1 1 1
v 0.06433848 0.25 -0.159099 1 1 1
v 0.1177618 0.25 -0.159099 1 1 1
v 0.06433848 0.85 -0.159099 1 1 1
v 0.1177618 0.85 -0.159099 1 1 1
v 0.1575365 0.85 -0.1193243 1 1 1
v 0.1575365 0.25 -0.1193243 1 1 1
v 0.1575365 0.25 0.1193243 1 1 1
v 0.1177618 0.25 0.159099 1 1 1
v 0.1575365 0.85 0.1193243 1 1 1
v 0.1177618 0.85 0.159099 1 1 1
v 0.06433848 0.25 0.159099 1 1 1
v 0.06433848 0.85 0.159099 1 1 1
v 0.1575365 0.85 0.06590097 1 1 1
v 0.1575365 0.25 0.06590097 1 1 1
v 0.1575365 0.85 -0.06590097 1 1 1
v 0.1575365 0.25 -0.06590097 1 1 1
v -0.0296875 0.25 -0.196875 1 1 1
v -0.0296875 0.85 -0.196875 1 1 1
v 0.0265625 0.25 0.196875 1 1 1
v -0.0296875 0.25 0.196875 1 1 1
v 0.0265625 0.85 0.196875 1 1 1
v -0.0296875 0.85 0.196875 1 1 1
v 0.1953125 0.25 0.028125 1 1 1
v 0.1953125 0.85 0.028125 1 1 1
v -0.1984375 0.25 -0.028125 1 1 1
v -0.1984375 0.85 -0.028125 1 1 1
v 0.1953125 0.85 -0.028125 1 1 1
v 0.1953125 0.25 -0.028125 1 1 1
v -0.1984375 0.25 0.028125 1 1 1
v -0.1984375 0.85 0.028125 1 1 1
v 0.0265625 0.85 -0.196875 1 1 1
v 0.0265625 0.25 -0.196875 1 1 1

vn -0.9238795 0 -0.3826834
vn -0.9238795 0 0.3826834
vn 0.3826834 0 -0.9238795
vn 0.9238795 0 -0.3826834
vn 0 -1 0
vn 0.9238795 0 0.3826834
vn 0.3826834 0 0.9238795
vn -0.3826834 0 -0.9238795
vn 0 1 0
vn -0.3826834 0 0.9238795
vn -0.7071068 -0.7071068 0
vn -1 0 0
vn 0.7071068 -0.7071068 0
vn -0.5555702 -0.8314696 0
vn 0.9238795 0.3826834 0
vn 1 0 0
vn -0.9238795 0.3826834 0
vn 0 0 1
vn 0.5555702 -0.8314696 0
vn 0 0 -1
vn -0.7071068 0 -0.7071068
vn 0.7071068 0 0.7071068
vn 0.7071068 0 -0.7071068
vn -0.7071068 0 0.7071068

vt 0.09375 0.025
vt 0.09375 0.225
vt 0.96875 0.04215729
vt 0.96875 0.08357865
vt 0.96875 0.025
vt 0.96875 0.125
vt 0.96875 0.225

usemtl colormap

f 3/1/2 2/2/1 1/1/1
f 2/2/1 3/1/2 4/2/2
f 7/2/3 6/1/4 5/1/3
f 6/1/4 7/2/3 8/2/4
f 10/1/5 6/1/5 9/1/5
f 6/1/5 10/1/5 5/1/5
f 5/1/5 10/1/5 11/1/5
f 5/1/5 11/1/5 12/1/5
f 12/1/5 11/1/5 3/1/5
f 12/1/5 3/1/5 1/1/5
f 13/2/6 6/1/4 8/2/4
f 6/1/4 13/2/6 9/1/6
f 13/2/6 10/1/7 9/1/6
f 10/1/7 13/2/6 14/2/7
f 15/2/8 5/1/3 12/1/8
f 5/1/3 15/2/8 7/2/3
f 2/2/1 12/1/8 1/1/1
f 12/1/8 2/2/1 15/2/8
f 7/2/9 13/2/9 8/2/9
f 13/2/9 7/2/9 14/2/9
f 14/2/9 7/2/9 15/2/9
f 14/2/9 15/2/9 16/2/9
f 16/2/9 15/2/9 2/2/9
f 16/2/9 2/2/9 4/2/9
f 16/2/10 3/1/2 11/1/10
f 3/1/2 16/2/10 4/2/2
f 14/2/7 11/1/10 10/1/7
f 11/1/10 14/2/7 16/2/10
f 19/2/1 18/1/8 17/1/1
f 18/1/8 19/2/1 20/2/8
f 23/2/10 22/1/2 21/1/10
f 22/1/2 23/2/10 24/2/2
f 27/2/6 26/1/7 25/1/6
f 26/1/7 27/2/6 28/2/7
f 20/2/8 29/1/3 18/1/8
f 29/1/3 20/2/8 30/2/3
f 27/2/6 32/1/4 31/2/4
f 32/1/4 27/2/6 25/1/6
f 30/2/9 27/2/9 31/2/9
f 27/2/9 30/2/9 28/2/9
f 28/2/9 30/2/9 20/2/9
f 28/2/9 20/2/9 23/2/9
f 23/2/9 20/2/9 19/2/9
f 23/2/9 19/2/9 24/2/9
f 26/1/5 32/1/5 25/1/5
f 32/1/5 26/1/5 29/1/5
f 29/1/5 26/1/5 21/1/5
f 29/1/5 21/1/5 18/1/5
f 18/1/5 21/1/5 22/1/5
f 18/1/5 22/1/5 17/1/5
f 22/1/2 19/2/1 17/1/1
f 19/2/1 22/1/2 24/2/2
f 30/2/3 32/1/4 29/1/3
f 32/1/4 30/2/3 31/2/4
f 28/2/7 21/1/10 26/1/7
f 21/1/10 28/2/7 23/2/10
f 35/3/11 34/4/12 33/3/11
f 34/4/12 35/3/11 36/4/12
f 39/5/5 38/3/13 37/3/13
f 38/3/13 39/5/5 40/5/5
f 43/3/11 42/5/5 41/5/5
f 42/5/5 43/3/11 44/3/11
f 43/3/11 45/4/14 44/3/11
f 45/4/14 43/3/11 46/4/14
f 49/6/15 48/4/16 47/6/15
f 48/4/16 49/6/15 50/4/16
f 36/4/12 51/6/17 34/4/12
f 51/6/17 36/4/12 52/6/17
f 35/3/11 40/5/5 39/5/5
f 40/5/5 35/3/11 33/3/11
f 41/5/5 54/3/13 53/3/13
f 54/3/13 41/5/5 42/5/5
f 53/3/18 43/3/18 41/5/18
f 43/3/18 53/3/18 50/4/18
f 43/3/18 50/4/18 46/4/18
f 46/4/18 50/4/18 49/6/18
f 46/4/18 49/6/18 55/4/18
f 55/4/18 49/6/18 36/4/18
f 36/4/18 49/6/18 52/6/18
f 35/3/18 55/4/18 36/4/18
f 35/3/18 37/3/18 55/4/18
f 37/3/18 35/3/18 39/5/18
f 55/4/19 38/3/13 56/4/19
f 38/3/13 55/4/19 37/3/13
f 50/4/16 54/3/13 48/4/16
f 54/3/13 50/4/16 53/3/13
f 55/4/19 45/4/14 46/4/14
f 45/4/14 55/4/19 56/4/19
f 33/3/20 38/3/20 40/5/20
f 38/3/20 33/3/20 34/4/20
f 38/3/20 34/4/20 56/4/20
f 56/4/20 34/4/20 51/6/20
f 56/4/20 51/6/20 45/4/20
f 45/4/20 51/6/20 48/4/20
f 48/4/20 51/6/20 47/6/20
f 54/3/20 45/4/20 48/4/20
f 54/3/20 44/3/20 45/4/20
f 44/3/20 54/3/20 42/5/20
f 59/6/9 58/6/9 57/6/9
f 58/6/9 59/6/9 60/6/9
f 60/6/9 59/6/9 61/6/9
f 60/6/9 61/6/9 62/6/9
f 62/6/9 61/6/9 63/6/9
f 62/6/9 63/6/9 64/6/9
f 66/5/10 64/6/2 65/5/2
f 64/6/2 66/5/10 62/6/10
f 63/6/1 68/5/8 67/5/1
f 68/5/8 63/6/1 61/6/8
f 65/5/2 63/6/1 67/5/1
f 63/6/1 65/5/2 64/6/2
f 58/6/6 70/5/7 69/5/6
f 70/5/7 58/6/6 60/6/7
f 58/6/6 71/5/4 57/6/4
f 71/5/4 58/6/6 69/5/6
f 61/6/8 72/5/3 68/5/8
f 72/5/3 61/6/8 59/6/3
f 60/6/7 66/5/10 70/5/7
f 66/5/10 60/6/7 62/6/10
f 57/6/4 72/5/3 59/6/3
f 72/5/3 57/6/4 71/5/4
f 75/7/2 74/5/12 73/7/12
f 74/5/12 75/7/2 76/5/2
f 79/5/18 78/7/10 77/7/18
f 78/7/10 79/5/18 80/5/10
f 83/5/1 82/7/8 81/7/1
f 82/7/8 83/5/1 84/5/8
f 78/7/10 76/5/2 75/7/2
f 76/5/2 78/7/10 80/5/10
f 85/7/12 83/5/1 81/7/1
f 83/5/1 85/7/12 86/5/12
f 84/5/8 87/7/20 82/7/8
f 87/7/20 84/5/8 88/5/20
f 91/5/20 90/7/3 89/7/20
f 90/7/3 91/5/20 92/5/3
f 93/5/4 90/7/3 92/5/3
f 90/7/3 93/5/4 94/7/4
f 97/5/6 96/7/7 95/7/6
f 96/7/7 97/5/6 98/5/7
f 98/5/7 99/7/18 96/7/7
f 99/7/18 98/5/7 100/5/18
f 97/5/6 102/7/16 101/5/16
f 102/7/16 97/5/6 95/7/6
f 103/5/16 94/7/4 93/5/4
f 94/7/4 103/5/16 104/7/16
f 88/5/21 105/6/8 87/6/21
f 105/6/8 88/5/21 106/5/8
f 109/5/7 108/6/10 107/6/7
f 108/6/10 109/5/7 110/5/10
f 112/5/6 102/6/22 111/6/6
f 102/6/22 112/5/6 101/5/22
f 114/5/1 85/6/21 113/6/1
f 85/6/21 114/5/1 86/5/21
f 115/5/4 104/6/23 103/5/23
f 104/6/23 115/5/4 116/6/4
f 73/6/24 118/5/2 117/6/2
f 118/5/2 73/6/24 74/5/24
f 117/6/2 114/5/1 113/6/1
f 114/5/1 117/6/2 118/5/2
f 91/5/23 120/6/3 119/5/3
f 120/6/3 91/5/23 89/6/23
f 106/5/8 120/6/3 105/6/8
f 120/6/3 106/5/8 119/5/3
f 108/6/10 79/5/24 77/6/24
f 79/5/24 108/6/10 110/5/10
f 100/5/22 107/6/7 99/6/22
f 107/6/7 100/5/22 109/5/7
f 112/5/6 116/6/4 115/5/4
f 116/6/4 112/5/6 111/6/6

g column




usemtl colormap

f 3/1/2 2/2/1 1/1/1
f 2/2/1 3/1/2 4/2/2
f 7/2/3 6/1/4 5/1/3
f 6/1/4 7/2/3 8/2/4
f 10/1/5 6/1/5 9/1/5
f 6/1/5 10/1/5 5/1/5
f 5/1/5 10/1/5 11/1/5
f 5/1/5 11/1/5 12/1/5
f 12/1/5 11/1/5 3/1/5
f 12/1/5 3/1/5 1/1/5
f 13/2/6 6/1/4 8/2/4
f 6/1/4 13/2/6 9/1/6
f 13/2/6 10/1/7 9/1/6
f 10/1/7 13/2/6 14/2/7
f 15/2/8 5/1/3 12/1/8
f 5/1/3 15/2/8 7/2/3
f 2/2/1 12/1/8 1/1/1
f 12/1/8 2/2/1 15/2/8
f 7/2/9 13/2/9 8/2/9
f 13/2/9 7/2/9 14/2/9
f 14/2/9 7/2/9 15/2/9
f 14/2/9 15/2/9 16/2/9
f 16/2/9 15/2/9 2/2/9
f 16/2/9 2/2/9 4/2/9
f 16/2/10 3/1/2 11/1/10
f 3/1/2 16/2/10 4/2/2
f 14/2/7 11/1/10 10/1/7
f 11/1/10 14/2/7 16/2/10
f 19/2/1 18/1/8 17/1/1
f 18/1/8 19/2/1 20/2/8
f 23/2/10 22/1/2 21/1/10
f 22/1/2 23/2/10 24/2/2
f 27/2/6 26/1/7 25/1/6
f 26/1/7 27/2/6 28/2/7
f 20/2/8 29/1/3 18/1/8
f 29/1/3 20/2/8 30/2/3
f 27/2/6 32/1/4 31/2/4
f 32/1/4 27/2/6 25/1/6
f 30/2/9 27/2/9 31/2/9
f 27/2/9 30/2/9 28/2/9
f 28/2/9 30/2/9 20/2/9
f 28/2/9 20/2/9 23/2/9
f 23/2/9 20/2/9 19/2/9
f 23/2/9 19/2/9 24/2/9
f 26/1/5 32/1/5 25/1/5
f 32/1/5 26/1/5 29/1/5
f 29/1/5 26/1/5 21/1/5
f 29/1/5 21/1/5 18/1/5
f 18/1/5 21/1/5 22/1/5
f 18/1/5 22/1/5 17/1/5
f 22/1/2 19/2/1 17/1/1
f 19/2/1 22/1/2 24/2/2
f 30/2/3 32/1/4 29/1/3
f 32/1/4 30/2/3 31/2/4
f 28/2/7 21/1/10 26/1/7
f 21/1/10 28/2/7 23/2/10
f 35/3/11 34/4/12 33/3/11
f 34/4/12 35/3/11 36/4/12
f 39/5/5 38/3/13 37/3/13
f 38/3/13 39/5/5 40/5/5
f 43/3/11 42/5/5 41/5/5
f 42/5/5 43/3/11 44/3/11
f 43/3/11 45/4/14 44/3/11
f 45/4/14 43/3/11 46/4/14
f 49/6/15 48/4/16 47/6/15
f 48/4/16 49/6/15 50/4/16
f 36/4/12 51/6/17 34/4/12
f 51/6/17 36/4/12 52/6/17
f 35/3/11 40/5/5 39/5/5
f 40/5/5 35/3/11 33/3/11
f 41/5/5 54/3/13 53/3/13
f 54/3/13 41/5/5 42/5/5
f 53/3/18 43/3/18 41/5/18
f 43/3/18 53/3/18 50/4/18
f 43/3/18 50/4/18 46/4/18
f 46/4/18 50/4/18 49/6/18
f 46/4/18 49/6/18 55/4/18
f 55/4/18 49/6/18 36/4/18
f 36/4/18 49/6/18 52/6/18
f 35/3/18 55/4/18 36/4/18
f 35/3/18 37/3/18 55/4/18
f 37/3/18 35/3/18 39/5/18
f 55/4/19 38/3/13 56/4/19
f 38/3/13 55/4/19 37/3/13
f 50/4/16 54/3/13 48/4/16
f 54/3/13 50/4/16 53/3/13
f 55/4/19 45/4/14 46/4/14
f 45/4/14 55/4/19 56/4/19
f 33/3/20 38/3/20 40/5/20
f 38/3/20 33/3/20 34/4/20
f 38/3/20 34/4/20 56/4/20
f 56/4/20 34/4/20 51/6/20
f 56/4/20 51/6/20 45/4/20
f 45/4/20 51/6/20 48/4/20
f 48/4/20 51/6/20 47/6/20
f 54/3/20 45/4/20 48/4/20
f 54/3/20 44/3/20 45/4/20
f 44/3/20 54/3/20 42/5/20
f 59/6/9 58/6/9 57/6/9
f 58/6/9 59/6/9 60/6/9
f 60/6/9 59/6/9 61/6/9
f 60/6/9 61/6/9 62/6/9
f 62/6/9 61/6/9 63/6/9
f 62/6/9 63/6/9 64/6/9
f 66/5/10 64/6/2 65/5/2
f 64/6/2 66/5/10 62/6/10
f 63/6/1 68/5/8 67/5/1
f 68/5/8 63/6/1 61/6/8
f 65/5/2 63/6/1 67/5/1
f 63/6/1 65/5/2 64/6/2
f 58/6/6 70/5/7 69/5/6
f 70/5/7 58/6/6 60/6/7
f 58/6/6 71/5/4 57/6/4
f 71/5/4 58/6/6 69/5/6
f 61/6/8 72/5/3 68/5/8
f 72/5/3 61/6/8 59/6/3
f 60/6/7 66/5/10 70/5/7
f 66/5/10 60/6/7 62/6/10
f 57/6/4 72/5/3 59/6/3
f 72/5/3 57/6/4 71/5/4
f 75/7/2 74/5/12 73/7/12
f 74/5/12 75/7/2 76/5/2
f 79/5/18 78/7/10 77/7/18
f 78/7/10 79/5/18 80/5/10
f 83/5/1 82/7/8 81/7/1
f 82/7/8 83/5/1 84/5/8
f 78/7/10 76/5/2 75/7/2
f 76/5/2 78/7/10 80/5/10
f 85/7/12 83/5/1 81/7/1
f 83/5/1 85/7/12 86/5/12
f 84/5/8 87/7/20 82/7/8
f 87/7/20 84/5/8 88/5/20
f 91/5/20 90/7/3 89/7/20
f 90/7/3 91/5/20 92/5/3
f 93/5/4 90/7/3 92/5/3
f 90/7/3 93/5/4 94/7/4
f 97/5/6 96/7/7 95/7/6
f 96/7/7 97/5/6 98/5/7
f 98/5/7 99/7/18 96/7/7
f 99/7/18 98/5/7 100/5/18
f 97/5/6 102/7/16 101/5/16
f 102/7/16 97/5/6 95/7/6
f 103/5/16 94/7/4 93/5/4
f 94/7/4 103/5/16 104/7/16
f 88/5/21 105/6/8 87/6/21
f 105/6/8 88/5/21 106/5/8
f 109/5/7 108/6/10 107/6/7
f 108/6/10 109/5/7 110/5/10
f 112/5/6 102/6/22 111/6/6
f 102/6/22 112/5/6 101/5/22
f 114/5/1 85/6/21 113/6/1
f 85/6/21 114/5/1 86/5/21
f 115/5/4 104/6/23 103/5/23
f 104/6/23 115/5/4 116/6/4
f 73/6/24 118/5/2 117/6/2
f 118/5/2 73/6/24 74/5/24
f 117/6/2 114/5/1 113/6/1
f 114/5/1 117/6/2 118/5/2
f 91/5/23 120/6/3 119/5/3
f 120/6/3 91/5/23 89/6/23
f 106/5/8 120/6/3 105/6/8
f 120/6/3 106/5/8 119/5/3
f 108/6/10 79/5/24 77/6/24
f 79/5/24 108/6/10 110/5/10
f 100/5/22 107/6/7 99/6/22
f 107/6/7 100/5/22 109/5/7
f 112/5/6 116/6/4 115/5/4
f 116/6/4 112/5/6 111/6/6

