# Created by Kenney (www.kenney.nl)

mtllib column-damaged.mtl

g column-damaged

v 0.3 0.15 -0.25 1 1 1
v 0.3 0 -0.25 1 1 1
v 0.3 0.15 0.25 1 1 1
v 0.3 0 0.25 1 1 1
v 0.25 0 0.3 1 1 1
v 0.25 0 -0.3 1 1 1
v -0.25 0 0.3 1 1 1
v -0.25 0 -0.3 1 1 1
v -0.3 0 0.25 1 1 1
v -0.3 0 -0.25 1 1 1
v -0.25 0.15 -0.3 1 1 1
v 0.25 0.15 -0.3 1 1 1
v -0.3 0.15 -0.25 1 1 1
v -0.3 0.1 0.1 1 1 1
v -0.3 0.15 0.05 1 1 1
v -0.3 0.15 0.15 1 1 1
v -0.3 0.15 0.25 1 1 1
v 0.25 0.15 0.3 1 1 1
v -0.25 0.15 0.3 1 1 1
v -0.25 0.15 0.1 1 1 1
v 0.1068895 0.613358 0.09980597 1 1 1
v 0.1360866 0.5536256 0.1392116 1 1 1
v 0.1161993 0.6102548 0.159099 1 1 1
v 0.155974 0.5969965 0.1193243 1 1 1
v 0.19375 0.5844045 -0.028125 1 1 1
v 0.19375 0.5844045 0.028125 1 1 1
v 0.155974 0.5969965 -0.06590097 1 1 1
v 0.155974 0.5969965 0.06590097 1 1 1
v 0.155974 0.5969965 -0.1193243 1 1 1
v 0.1161993 0.6102548 -0.159099 1 1 1
v 0.06277598 0.6280625 -0.159099 1 1 1
v 0.06277598 0.6280625 0.159099 1 1 1
v 0.025 0.6406545 -0.196875 1 1 1
v 0.025 0.6406545 0.196875 1 1 1
v -0.03125 0.6594045 -0.196875 1 1 1
v -0.03125 0.6594045 0.196875 1 1 1
v -0.06902597 0.6719965 -0.159099 1 1 1
v -0.06902597 0.6719965 0.159099 1 1 1
v -0.1224493 0.6898043 -0.159099 1 1 1
v -0.1224493 0.6898043 0.159099 1 1 1
v -0.162224 0.7030625 -0.1193243 1 1 1
v -0.162224 0.7030625 0.1193243 1 1 1
v -0.162224 0.7030625 0.06590097 1 1 1
v -0.162224 0.7030625 -0.06590097 1 1 1
v -0.2 0.7156545 0.028125 1 1 1
v -0.2 0.7156545 -0.028125 1 1 1
v 0.25 0.25 0.02928932 1 1 1
v 0.25 0.2 0.07928932 1 1 1
v 0.2 0.25 0.07928932 1 1 1
v -0.07928932 0.2 -0.25 1 1 1
v -0.02928932 0.25 -0.25 1 1 1
v -0.07928932 0.25 -0.2 1 1 1
v -0.1292893 0.25 -0.25 1 1 1
v 0.25 0.25 0.1292893 1 1 1
v -0.25 0.15 -0.2292893 1 1 1
v -0.2292893 0.15 -0.25 1 1 1
v -0.25 0.25 -0.2292893 1 1 1
v -0.2292893 0.25 -0.25 1 1 1
v -0.25 0.15 0.2292893 1 1 1
v -0.25 0.25 0.2292893 1 1 1
v -0.2292893 0.15 0.25 1 1 1
v -0.2292893 0.25 0.25 1 1 1
v 0.2292893 0.15 0.25 1 1 1
v 0.2292893 0.25 0.25 1 1 1
v 0.2292893 0.25 -0.25 1 1 1
v 0.2292893 0.15 -0.25 1 1 1
v 0.25 0.25 -0.2292893 1 1 1
v 0.25 0.15 -0.2292893 1 1 1
v 0.25 0.25 0.2292893 1 1 1
v 0.25 0.15 0.2292893 1 1 1
v 0.155974 0.25 0.06590097 1 1 1
v 0.155974 0.25 0.1193243 1 1 1
v 0.06277598 0.25 -0.159099 1 1 1
v 0.1161993 0.25 -0.159099 1 1 1
v -0.162224 0.25 0.06590097 1 1 1
v -0.162224 0.25 0.1193243 1 1 1
v 0.1161993 0.25 0.159099 1 1 1
v -0.162224 0.25 -0.1193243 1 1 1
v -0.162224 0.25 -0.06590097 1 1 1
v -0.1224493 0.25 -0.159099 1 1 1
v -0.06902597 0.25 -0.159099 1 1 1
v 0.155974 0.25 -0.1193243 1 1 1
v 0.155974 0.25 -0.06590097 1 1 1
v -0.1224493 0.25 0.159099 1 1 1
v 0.06277598 0.25 0.159099 1 1 1
v -0.06902597 0.25 0.159099 1 1 1
v 0.19375 0.25 -0.028125 1 1 1
v 0.19375 0.25 0.028125 1 1 1
v 0.025 0.25 0.196875 1 1 1
v -0.2 0.25 -0.028125 1 1 1
v -0.2 0.25 0.028125 1 1 1
v -0.03125 0.25 -0.196875 1 1 1
v 0.025 0.25 -0.196875 1 1 1
v -0.03125 0.25 0.196875 1 1 1

vn 0.9238795 0 -0.3826834
vn 0.9238795 0 0.3826834
vn 0 -1 0
vn -0.3826834 0 -0.9238795
vn 0.3826834 0 -0.9238795
vn -0.9238795 0 -0.3826834
vn -0.9238795 0 0.3826834
vn -1 0 0
vn 0.3826834 0 0.9238795
vn -0.3826834 0 0.9238795
vn 0 1 0
vn 0.6417305 0.6155093 0.4575263
vn 0.583051 0.6263487 0.5174349
vn 0.9214624 0.3676575 -0.125439
vn -0.1824773 0.4777222 0.8593506
vn 0.3162278 0.9486833 0
vn -0.7071068 0.7071068 0
vn -0.5773503 0.5773503 -0.5773503
vn -0.5773503 0.5773503 0.5773503
vn 0.5773503 0.5773503 0.5773503
vn 0.7071068 0.7071068 0
vn 0 0.7071068 -0.7071068
vn 0.5773503 0.5773503 -0.5773503
vn 0 0 -1
vn 1 0 0
vn 0.9794914 0 0.201486
vn 0.3163817 0 -0.9486319
vn -0.9359801 0 0.3520529
vn 0.7071068 0 0.7071068
vn 0.1453641 0 0.9893782
vn -0.9359801 0 -0.3520529
vn -0.4507974 0 -0.8926263
vn 0.9126329 0 -0.40878
vn -0.4507974 0 0.8926263
vn 0 0 1
vn 0.9126329 0 0.40878
vn 0.3163817 0 0.9486319
vn -0.7071068 0 -0.7071068
vn 0.7071068 0 -0.7071068
vn -0.7071068 0 0.7071068

vt 0.09375 0.225
vt 0.09375 0.025
vt 0.09375 0.1583333
vt 0.09375 0.06893665
vt 0.09375 0.09459189
vt 0.09375 0.07026951
vt 0.09375 0.07596396
vt 0.09375 0.08137227
vt 0.09375 0.06262103
vt 0.09375 0.05721272
vt 0.09375 0.04915955
vt 0.09375 0.04375124
vt 0.09375 0.03610277
vt 0.09375 0.03040831
vt 0.96875 0.1583333
vt 0.96875 0.225
vt 0.96875 0.125
vt 0.96875 0.075
vt 0.96875 0.025
vt 0.96875 0.07596396
vt 0.96875 0.06262103
vt 0.96875 0.07026951
vt 0.96875 0.03040831
vt 0.96875 0.09459189
vt 0.96875 0.03610277
vt 0.96875 0.04375124
vt 0.96875 0.05318614
vt 0.96875 0.04381052
vt 0.96875 0.04110636
vt 0.96875 0.02770416
vt 0.96875 0.05048198
vt 0.96875 0.03437562
vt 0.96875 0.03707977

usemtl colormap

f 3/1/2 2/2/1 1/1/1
f 2/2/1 3/1/2 4/2/2
f 5/2/3 2/2/3 4/2/3
f 2/2/3 5/2/3 6/2/3
f 6/2/3 5/2/3 7/2/3
f 6/2/3 7/2/3 8/2/3
f 8/2/3 7/2/3 9/2/3
f 8/2/3 9/2/3 10/2/3
f 11/1/4 6/2/5 8/2/4
f 6/2/5 11/1/4 12/1/5
f 9/2/7 13/1/6 10/2/6
f 13/1/6 9/2/7 14/3/8
f 13/1/6 14/3/8 15/1/8
f 14/3/8 9/2/7 16/1/8
f 16/1/8 9/2/7 17/1/7
f 18/1/9 7/2/10 5/2/9
f 7/2/10 18/1/9 19/1/10
f 12/1/5 2/2/1 6/2/5
f 2/2/1 12/1/5 1/1/1
f 3/1/2 5/2/9 4/2/2
f 5/2/9 3/1/2 18/1/9
f 13/1/6 8/2/4 10/2/6
f 8/2/4 13/1/6 11/1/4
f 19/1/10 9/2/7 7/2/10
f 9/2/7 19/1/10 17/1/7
f 20/1/11 13/1/11 15/1/11
f 13/1/11 20/1/11 11/1/11
f 19/1/11 11/1/11 20/1/11
f 19/1/11 20/1/11 16/1/11
f 19/1/11 16/1/11 17/1/11
f 18/1/11 11/1/11 19/1/11
f 18/1/11 12/1/11 11/1/11
f 3/1/11 12/1/11 18/1/11
f 12/1/11 3/1/11 1/1/11
f 23/6/14 22/5/13 21/4/12
f 21/4/12 22/5/13 24/7/15
f 27/7/16 26/8/16 25/8/16
f 26/8/16 27/7/16 28/7/16
f 28/7/16 27/7/16 29/7/16
f 28/7/16 29/7/16 24/7/16
f 24/7/16 29/7/16 30/6/16
f 24/7/16 30/6/16 21/4/16
f 21/4/16 30/6/16 31/9/16
f 32/9/16 21/4/16 31/9/16
f 21/4/16 32/9/16 23/6/16
f 32/9/16 31/9/16 33/10/16
f 32/9/16 33/10/16 34/10/16
f 34/10/16 33/10/16 35/11/16
f 34/10/16 35/11/16 36/11/16
f 36/11/16 35/11/16 37/12/16
f 36/11/16 37/12/16 38/12/16
f 38/12/16 37/12/16 39/13/16
f 38/12/16 39/13/16 40/13/16
f 40/13/16 39/13/16 41/14/16
f 40/13/16 41/14/16 42/14/16
f 42/14/16 41/14/16 43/14/16
f 44/14/16 43/14/16 41/14/16
f 43/14/16 44/14/16 45/2/16
f 45/2/16 44/14/16 46/2/16
f 16/16/18 20/16/17 14/15/17
f 14/15/17 20/16/17 15/16/19
f 49/17/21 48/18/21 47/17/20
f 52/17/22 51/17/18 50/18/22
f 53/17/23 52/17/22 50/18/22
f 49/17/21 54/17/23 48/18/21
f 57/17/6 56/19/4 55/19/6
f 56/19/4 57/17/6 58/17/4
f 59/19/7 57/17/6 55/19/6
f 57/17/6 59/19/7 60/17/7
f 61/19/10 60/17/7 59/19/7
f 60/17/7 61/19/10 62/17/10
f 64/17/9 61/19/10 63/19/9
f 61/19/10 64/17/9 62/17/10
f 67/17/1 66/19/5 65/17/5
f 66/19/5 67/17/1 68/19/1
f 50/18/24 58/17/4 53/17/24
f 50/18/24 56/19/4 58/17/4
f 56/19/4 50/18/24 66/19/5
f 50/18/24 65/17/5 66/19/5
f 65/17/5 50/18/24 51/17/24
f 65/17/11 47/17/11 67/17/11
f 47/17/11 65/17/11 49/17/11
f 49/17/11 65/17/11 51/17/11
f 62/17/11 49/17/11 51/17/11
f 62/17/11 51/17/11 52/17/11
f 62/17/11 52/17/11 53/17/11
f 62/17/11 53/17/11 58/17/11
f 62/17/11 58/17/11 57/17/11
f 62/17/11 57/17/11 60/17/11
f 64/17/11 49/17/11 62/17/11
f 69/17/11 49/17/11 64/17/11
f 49/17/11 69/17/11 54/17/11
f 69/17/2 63/19/9 70/19/2
f 63/19/9 69/17/2 64/17/9
f 47/17/25 68/19/1 67/17/1
f 68/19/1 47/17/25 48/18/25
f 68/19/1 48/18/25 70/19/2
f 70/19/2 48/18/25 54/17/25
f 70/19/2 54/17/25 69/17/2
f 24/20/26 71/16/25 28/20/25
f 71/16/25 24/20/26 72/16/2
f 31/21/24 74/16/5 73/16/24
f 74/16/5 31/21/24 30/22/27
f 76/16/7 43/23/8 75/16/8
f 43/23/8 76/16/7 42/23/28
f 24/20/26 77/16/9 72/16/2
f 77/16/9 24/20/26 22/24/29
f 23/22/30 77/16/9 22/24/29
f 79/16/8 41/23/31 78/16/6
f 41/23/31 79/16/8 44/23/8
f 39/25/32 81/16/24 80/16/4
f 81/16/24 39/25/32 37/26/24
f 27/20/25 82/16/1 29/20/33
f 82/16/1 27/20/25 83/16/25
f 40/25/34 76/16/7 84/16/10
f 76/16/7 40/25/34 42/23/28
f 23/22/30 85/16/35 77/16/9
f 85/16/35 23/22/30 32/21/35
f 30/22/27 82/16/1 74/16/5
f 82/16/1 30/22/27 29/20/33
f 80/16/4 41/23/31 39/25/32
f 41/23/31 80/16/4 78/16/6
f 38/26/35 84/16/10 86/16/35
f 84/16/10 38/26/35 40/25/34
f 26/27/36 87/17/1 25/27/33
f 87/17/1 26/27/36 88/17/2
f 32/28/29 89/17/9 85/17/29
f 89/17/9 32/28/29 34/29/37
f 46/19/31 79/17/38 90/17/6
f 79/17/38 46/19/31 44/30/38
f 25/27/33 83/17/39 27/31/39
f 83/17/39 25/27/33 87/17/1
f 91/17/7 46/19/31 90/17/6
f 46/19/31 91/17/7 45/19/28
f 75/17/40 45/19/28 91/17/7
f 45/19/28 75/17/40 43/30/40
f 37/32/38 92/17/4 81/17/38
f 92/17/4 37/32/38 35/33/32
f 31/28/39 93/17/5 33/29/27
f 93/17/5 31/28/39 73/17/39
f 35/33/32 93/17/5 92/17/4
f 93/17/5 35/33/32 33/29/27
f 26/27/36 71/17/29 88/17/2
f 71/17/29 26/27/36 28/31/29
f 34/29/37 94/17/10 89/17/9
f 94/17/10 34/29/37 36/33/34
f 94/17/10 38/32/40 86/17/40
f 38/32/40 94/17/10 36/33/34

g column-damaged




usemtl colormap

f 3/1/2 2/2/1 1/1/1
f 2/2/1 3/1/2 4/2/2
f 5/2/3 2/2/3 4/2/3
f 2/2/3 5/2/3 6/2/3
f 6/2/3 5/2/3 7/2/3
f 6/2/3 7/2/3 8/2/3
f 8/2/3 7/2/3 9/2/3
f 8/2/3 9/2/3 10/2/3
f 11/1/4 6/2/5 8/2/4
f 6/2/5 11/1/4 12/1/5
f 9/2/7 13/1/6 10/2/6
f 13/1/6 9/2/7 14/3/8
f 13/1/6 14/3/8 15/1/8
f 14/3/8 9/2/7 16/1/8
f 16/1/8 9/2/7 17/1/7
f 18/1/9 7/2/10 5/2/9
f 7/2/10 18/1/9 19/1/10
f 12/1/5 2/2/1 6/2/5
f 2/2/1 12/1/5 1/1/1
f 3/1/2 5/2/9 4/2/2
f 5/2/9 3/1/2 18/1/9
f 13/1/6 8/2/4 10/2/6
f 8/2/4 13/1/6 11/1/4
f 19/1/10 9/2/7 7/2/10
f 9/2/7 19/1/10 17/1/7
f 20/1/11 13/1/11 15/1/11
f 13/1/11 20/1/11 11/1/11
f 19/1/11 11/1/11 20/1/11
f 19/1/11 20/1/11 16/1/11
f 19/1/11 16/1/11 17/1/11
f 18/1/11 11/1/11 19/1/11
f 18/1/11 12/1/11 11/1/11
f 3/1/11 12/1/11 18/1/11
f 12/1/11 3/1/11 1/1/11
f 23/6/14 22/5/13 21/4/12
f 21/4/12 22/5/13 24/7/15
f 27/7/16 26/8/16 25/8/16
f 26/8/16 27/7/16 28/7/16
f 28/7/16 27/7/16 29/7/16
f 28/7/16 29/7/16 24/7/16
f 24/7/16 29/7/16 30/6/16
f 24/7/16 30/6/16 21/4/16
f 21/4/16 30/6/16 31/9/16
f 32/9/16 21/4/16 31/9/16
f 21/4/16 32/9/16 23/6/16
f 32/9/16 31/9/16 33/10/16
f 32/9/16 33/10/16 34/10/16
f 34/10/16 33/10/16 35/11/16
f 34/10/16 35/11/16 36/11/16
f 36/11/16 35/11/16 37/12/16
f 36/11/16 37/12/16 38/12/16
f 38/12/16 37/12/16 39/13/16
f 38/12/16 39/13/16 40/13/16
f 40/13/16 39/13/16 41/14/16
f 40/13/16 41/14/16 42/14/16
f 42/14/16 41/14/16 43/14/16
f 44/14/16 43/14/16 41/14/16
f 43/14/16 44/14/16 45/2/16
f 45/2/16 44/14/16 46/2/16
f 16/16/18 20/16/17 14/15/17
f 14/15/17 20/16/17 15/16/19
f 49/17/21 48/18/21 47/17/20
f 52/17/22 51/17/18 50/18/22
f 53/17/23 52/17/22 50/18/22
f 49/17/21 54/17/23 48/18/21
f 57/17/6 56/19/4 55/19/6
f 56/19/4 57/17/6 58/17/4
f 59/19/7 57/17/6 55/19/6
f 57/17/6 59/19/7 60/17/7
f 61/19/10 60/17/7 59/19/7
f 60/17/7 61/19/10 62/17/10
f 64/17/9 61/19/10 63/19/9
f 61/19/10 64/17/9 62/17/10
f 67/17/1 66/19/5 65/17/5
f 66/19/5 67/17/1 68/19/1
f 50/18/24 58/17/4 53/17/24
f 50/18/24 56/19/4 58/17/4
f 56/19/4 50/18/24 66/19/5
f 50/18/24 65/17/5 66/19/5
f 65/17/5 50/18/24 51/17/24
f 65/17/11 47/17/11 67/17/11
f 47/17/11 65/17/11 49/17/11
f 49/17/11 65/17/11 51/17/11
f 62/17/11 49/17/11 51/17/11
f 62/17/11 51/17/11 52/17/11
f 62/17/11 52/17/11 53/17/11
f 62/17/11 53/17/11 58/17/11
f 62/17/11 58/17/11 57/17/11
f 62/17/11 57/17/11 60/17/11
f 64/17/11 49/17/11 62/17/11
f 69/17/11 49/17/11 64/17/11
f 49/17/11 69/17/11 54/17/11
f 69/17/2 63/19/9 70/19/2
f 63/19/9 69/17/2 64/17/9
f 47/17/25 68/19/1 67/17/1
f 68/19/1 47/17/25 48/18/25
f 68/19/1 48/18/25 70/19/2
f 70/19/2 48/18/25 54/17/25
f 70/19/2 54/17/25 69/17/2
f 24/20/26 71/16/25 28/20/25
f 71/16/25 24/20/26 72/16/2
f 31/21/24 74/16/5 73/16/24
f 74/16/5 31/21/24 30/22/27
f 76/16/7 43/23/8 75/16/8
f 43/23/8 76/16/7 42/23/28
f 24/20/26 77/16/9 72/16/2
f 77/16/9 24/20/26 22/24/29
f 23/22/30 77/16/9 22/24/29
f 79/16/8 41/23/31 78/16/6
f 41/23/31 79/16/8 44/23/8
f 39/25/32 81/16/24 80/16/4
f 81/16/24 39/25/32 37/26/24
f 27/20/25 82/16/1 29/20/33
f 82/16/1 27/20/25 83/16/25
f 40/25/34 76/16/7 84/16/10
f 76/16/7 40/25/34 42/23/28
f 23/22/30 85/16/35 77/16/9
f 85/16/35 23/22/30 32/21/35
f 30/22/27 82/16/1 74/16/5
f 82/16/1 30/22/27 29/20/33
f 80/16/4 41/23/31 39/25/32
f 41/23/31 80/16/4 78/16/6
f 38/26/35 84/16/10 86/16/35
f 84/16/10 38/26/35 40/25/34
f 26/27/36 87/17/1 25/27/33
f 87/17/1 26/27/36 88/17/2
f 32/28/29 89/17/9 85/17/29
f 89/17/9 32/28/29 34/29/37
f 46/19/31 79/17/38 90/17/6
f 79/17/38 46/19/31 44/30/38
f 25/27/33 83/17/39 27/31/39
f 83/17/39 25/27/33 87/17/1
f 91/17/7 46/19/31 90/17/6
f 46/19/31 91/17/7 45/19/28
f 75/17/40 45/19/28 91/17/7
f 45/19/28 75/17/40 43/30/40
f 37/32/38 92/17/4 81/17/38
f 92/17/4 37/32/38 35/33/32
f 31/28/39 93/17/5 33/29/27
f 93/17/5 31/28/39 73/17/39
f 35/33/32 93/17/5 92/17/4
f 93/17/5 35/33/32 33/29/27
f 26/27/36 71/17/29 88/17/2
f 71/17/29 26/27/36 28/31/29
f 34/29/37 94/17/10 89/17/9
f 94/17/10 34/29/37 36/33/34
f 94/17/10 38/32/40 86/17/40
f 38/32/40 94/17/10 36/33/34

