# Created by Kenney (www.kenney.nl)

mtllib floor-detail.mtl

g floor-detail

v 0.5 0 -0.5 1 1 1
v 0.5 0 0.5 1 1 1
v -0.5 0 -0.5 1 1 1
v -0.5 0 0.5 1 1 1
v 0.4147541 0.0441 0.2697791 1 1 1
v 0.4147541 0.0441 0.3359291 1 1 1
v 0.3574665 0.0441 0.2367041 1 1 1
v 0.3574665 0.0441 0.3690041 1 1 1
v 0.3001789 0.0441 0.2697791 1 1 1
v 0.3001789 0.0441 0.3359291 1 1 1
v 0.281083 0 0.2587541 1 1 1
v 0.3574665 0 0.2146541 1 1 1
v 0.4338499 0 0.2587541 1 1 1
v 0.4338499 0 0.3469541 1 1 1
v 0.3574665 0 0.3910541 1 1 1
v 0.281083 0 0.3469541 1 1 1
v -0.07719067 0.0441 -0.2617924 1 1 1
v -0.07719067 0.0441 -0.1956424 1 1 1
v -0.1344783 0.0441 -0.2948674 1 1 1
v -0.1344783 0.0441 -0.1625674 1 1 1
v -0.1917658 0.0441 -0.2617924 1 1 1
v -0.1917658 0.0441 -0.1956424 1 1 1
v -0.2108617 0 -0.2728174 1 1 1
v -0.1344783 0 -0.3169174 1 1 1
v -0.05809481 0 -0.2728174 1 1 1
v -0.05809481 0 -0.1846174 1 1 1
v -0.1344783 0 -0.1405174 1 1 1
v -0.2108617 0 -0.1846174 1 1 1
v -0.1865785 0.07 -0.3335656 1 1 1
v -0.1865785 0.07 -0.2285656 1 1 1
v -0.2775112 0.07 -0.3860656 1 1 1
v -0.2775112 0.07 -0.1760656 1 1 1
v -0.3684438 0.07 -0.3335656 1 1 1
v -0.3684438 0.07 -0.2285656 1 1 1
v -0.3987547 0 -0.3510656 1 1 1
v -0.2775112 0 -0.4210656 1 1 1
v -0.1562676 0 -0.3510656 1 1 1
v -0.1562676 0 -0.2110656 1 1 1
v -0.2775112 0 -0.1410656 1 1 1
v -0.3987547 0 -0.2110656 1 1 1

vn 0 1 0
vn -0.7745967 0.4472136 -0.4472136
vn 0 0.4472136 -0.8944272
vn 0.7745967 0.4472136 -0.4472136
vn 0.7745967 0.4472136 0.4472136
vn 0 0.4472136 0.8944272
vn -0.7745967 0.4472136 0.4472136

vt 0.96875 0.125
vt 0.96875 0.025

usemtl colormap

f 3/1/1 2/1/1 1/1/1
f 2/1/1 3/1/1 4/1/1
f 7/1/1 6/1/1 5/1/1
f 6/1/1 7/1/1 8/1/1
f 8/1/1 7/1/1 9/1/1
f 8/1/1 9/1/1 10/1/1
f 9/1/2 12/2/3 11/2/2
f 12/2/3 9/1/2 7/1/3
f 5/1/4 14/2/5 13/2/4
f 14/2/5 5/1/4 6/1/5
f 8/1/6 16/2/7 15/2/6
f 16/2/7 8/1/6 10/1/7
f 7/1/3 13/2/4 12/2/3
f 13/2/4 7/1/3 5/1/4
f 16/2/7 9/1/2 11/2/2
f 9/1/2 16/2/7 10/1/7
f 6/1/5 15/2/6 14/2/5
f 15/2/6 6/1/5 8/1/6
f 19/1/1 18/1/1 17/1/1
f 18/1/1 19/1/1 20/1/1
f 20/1/1 19/1/1 21/1/1
f 20/1/1 21/1/1 22/1/1
f 21/1/2 24/2/3 23/2/2
f 24/2/3 21/1/2 19/1/3
f 17/1/4 26/2/5 25/2/4
f 26/2/5 17/1/4 18/1/5
f 20/1/6 28/2/7 27/2/6
f 28/2/7 20/1/6 22/1/7
f 19/1/3 25/2/4 24/2/3
f 25/2/4 19/1/3 17/1/4
f 28/2/7 21/1/2 23/2/2
f 21/1/2 28/2/7 22/1/7
f 18/1/5 27/2/6 26/2/5
f 27/2/6 18/1/5 20/1/6
f 31/1/1 30/1/1 29/1/1
f 30/1/1 31/1/1 32/1/1
f 32/1/1 31/1/1 33/1/1
f 32/1/1 33/1/1 34/1/1
f 33/1/2 36/2/3 35/2/2
f 36/2/3 33/1/2 31/1/3
f 29/1/4 38/2/5 37/2/4
f 38/2/5 29/1/4 30/1/5
f 32/1/6 40/2/7 39/2/6
f 40/2/7 32/1/6 34/1/7
f 31/1/3 37/2/4 36/2/3
f 37/2/4 31/1/3 29/1/4
f 40/2/7 33/1/2 35/2/2
f 33/1/2 40/2/7 34/1/7
f 30/1/5 39/2/6 38/2/5
f 39/2/6 30/1/5 32/1/6

g floor-detail




usemtl colormap

f 3/1/1 2/1/1 1/1/1
f 2/1/1 3/1/1 4/1/1
f 7/1/1 6/1/1 5/1/1
f 6/1/1 7/1/1 8/1/1
f 8/1/1 7/1/1 9/1/1
f 8/1/1 9/1/1 10/1/1
f 9/1/2 12/2/3 11/2/2
f 12/2/3 9/1/2 7/1/3
f 5/1/4 14/2/5 13/2/4
f 14/2/5 5/1/4 6/1/5
f 8/1/6 16/2/7 15/2/6
f 16/2/7 8/1/6 10/1/7
f 7/1/3 13/2/4 12/2/3
f 13/2/4 7/1/3 5/1/4
f 16/2/7 9/1/2 11/2/2
f 9/1/2 16/2/7 10/1/7
f 6/1/5 15/2/6 14/2/5
f 15/2/6 6/1/5 8/1/6
f 19/1/1 18/1/1 17/1/1
f 18/1/1 19/1/1 20/1/1
f 20/1/1 19/1/1 21/1/1
f 20/1/1 21/1/1 22/1/1
f 21/1/2 24/2/3 23/2/2
f 24/2/3 21/1/2 19/1/3
f 17/1/4 26/2/5 25/2/4
f 26/2/5 17/1/4 18/1/5
f 20/1/6 28/2/7 27/2/6
f 28/2/7 20/1/6 22/1/7
f 19/1/3 25/2/4 24/2/3
f 25/2/4 19/1/3 17/1/4
f 28/2/7 21/1/2 23/2/2
f 21/1/2 28/2/7 22/1/7
f 18/1/5 27/2/6 26/2/5
f 27/2/6 18/1/5 20/1/6
f 31/1/1 30/1/1 29/1/1
f 30/1/1 31/1/1 32/1/1
f 32/1/1 31/1/1 33/1/1
f 32/1/1 33/1/1 34/1/1
f 33/1/2 36/2/3 35/2/2
f 36/2/3 33/1/2 31/1/3
f 29/1/4 38/2/5 37/2/4
f 38/2/5 29/1/4 30/1/5
f 32/1/6 40/2/7 39/2/6
f 40/2/7 32/1/6 34/1/7
f 31/1/3 37/2/4 36/2/3
f 37/2/4 31/1/3 29/1/4
f 40/2/7 33/1/2 35/2/2
f 33/1/2 40/2/7 34/1/7
f 30/1/5 39/2/6 38/2/5
f 39/2/6 30/1/5 32/1/6

